<?xml version="1.0" encoding="UTF-8" standalone="no"?>
<svg
   height="48px"
   viewBox="0 -960 960 960"
   width="48px"
   fill="#000000"
   version="1.1"
   id="svg4"
   sodipodi:docname="favicon.svg"
   inkscape:version="1.2.2 (b0a8486541, 2022-12-01)"
   xml:space="preserve"
   xmlns:inkscape="http://www.inkscape.org/namespaces/inkscape"
   xmlns:sodipodi="http://sodipodi.sourceforge.net/DTD/sodipodi-0.dtd"
   xmlns="http://www.w3.org/2000/svg"
   xmlns:svg="http://www.w3.org/2000/svg"><defs
     id="defs8" /><sodipodi:namedview
     id="namedview6"
     pagecolor="#ffffff"
     bordercolor="#666666"
     borderopacity="1.0"
     inkscape:showpageshadow="2"
     inkscape:pageopacity="0.0"
     inkscape:pagecheckerboard="0"
     inkscape:deskcolor="#d1d1d1"
     showgrid="false"
     inkscape:zoom="15.129139"
     inkscape:cx="71.220182"
     inkscape:cy="60.743709"
     inkscape:window-width="3840"
     inkscape:window-height="2082"
     inkscape:window-x="0"
     inkscape:window-y="0"
     inkscape:window-maximized="1"
     inkscape:current-layer="svg4" /><path
     style="display:none;fill:#000000;fill-opacity:1"
     d="m 718,-100 h 33 v -110 h 110 v -33 H 751 v -110 h -33 v 110 H 608 v 33 h 110 z"
     id="path346" /><path
     style="display:none;fill:#000000;fill-opacity:1"
     d="M 732.5,-40 Q 655,-40 600,-95.5 545,-151 545,-227 545,-305.43 599.99,-360.72 654.98,-416 733,-416 q 77,0 132.5,55.28 55.5,55.29 55.5,133.72 0,76 -55.5,131.5 Q 810,-40 732.5,-40 Z"
     id="path344" /><path
     style="fill:#000000;fill-opacity:1"
     d="m 697,-623 h 60 v -60 h -60 z"
     id="path342" /><path
     style="fill:#000000;fill-opacity:1"
     d="m 920,-840 v 451 Q 907.18,-404.32 892.09,-416.66 877,-429 860,-440 V -780 H 465 v 112 l -60,-42 v -130 z"
     id="path340" /><path
     style="fill:#000000;fill-opacity:1"
     d="m 40,-120 v -390 l 271,-194 272,196 q -9.09,11.54 -18.5,23.5 -9.41,11.96 -18.5,23.5 L 311,-630 100,-478.58 V -180 h 98 v -201 h 226 v 261 H 364 V -321 H 258 v 201 z"
     id="path338" /><path
     style="fill:#000000;fill-opacity:1"
     d="M 641,-545 Z"
     id="path336" /><path
     style="fill:#000000;fill-opacity:1"
     d="m 198,-180 v -201 h 226 v 201 -201 H 198 Z"
     id="path2" /><g
     id="text3918"
     transform="matrix(0.99214895,0,0,0.99214895,534.63859,-448.28786)"
     style="stroke-width:20.1583">
	<path
   d="m 236.126,218.637 c -1.063,-1.283 -2.091,-2.603 -3.209,-3.834 -1.184,-1.302 -1.96,-1.177 -2.649,0.427 -0.68,1.584 -1.25,3.216 -1.853,4.833 -0.108,0.29 -0.165,0.607 -0.201,0.918 -0.11,0.933 0.293,1.373 1.274,1.367 0.104,-0.009 0.264,-0.003 0.411,-0.038 1.913,-0.438 3.833,-0.844 5.731,-1.342 1.016,-0.268 1.26,-1.019 0.754,-1.94 -0.072,-0.137 -0.158,-0.272 -0.258,-0.391"
   id="path348"
   style="stroke-width:20.1583" />
	<path
   d="m 63.681,190.347 c 0.103,0.021 0.209,0.018 0.311,0.041 1.747,0.413 3.527,0.287 5.979,0.331 4.303,-0.051 9.183,-0.805 13.982,-2.124 0.553,-0.152 1.106,-0.3 1.663,-0.438 1.553,-0.393 1.855,-0.867 1.525,-2.476 -0.146,-0.715 -0.332,-1.422 -0.506,-2.131 -0.335,-1.366 -0.72,-2.724 -1.004,-4.1 -0.815,-3.938 -2.033,-7.763 -3.239,-11.591 -0.156,-0.494 -0.322,-0.996 -0.559,-1.457 -0.501,-0.973 -1.188,-1.116 -2.021,-0.45 -0.283,0.227 -0.54,0.492 -0.783,0.763 -1.573,1.744 -3.076,3.544 -4.404,5.487 -2.679,3.918 -5.383,7.817 -8.07,11.729 -0.801,1.166 -1.675,2.259 -2.765,3.176 -0.395,0.332 -0.755,0.729 -1.042,1.156 -0.756,1.124 -0.428,1.82 0.933,2.084"
   id="path350"
   style="stroke-width:20.1583" />
	<path
   d="m 271.596,245.329 c 0.292,-0.445 0.188,-0.927 -0.158,-1.311 -0.206,-0.227 -0.462,-0.438 -0.736,-0.566 -1.372,-0.64 -2.783,-1.176 -4.307,-1.277 -1.397,-0.093 -2.799,-0.136 -3.969,-0.191 -1.89,0.014 -3.561,-0.104 -5.205,0.065 -1.956,0.201 -3.891,0.636 -5.829,0.994 -0.509,0.093 -1.012,0.242 -1.494,0.426 -0.653,0.247 -0.984,0.756 -0.939,1.473 0.023,0.366 0.067,0.735 0.141,1.097 0.338,1.702 0.687,3.4 1.037,5.103 0.073,0.36 0.136,0.729 0.266,1.07 0.223,0.586 0.648,0.973 1.29,0.969 0.565,-0.005 1.145,-0.038 1.695,-0.162 2.987,-0.67 5.958,-1.43 8.955,-2.048 3.147,-0.647 5.852,-2.099 8.18,-4.304 0.409,-0.393 0.759,-0.862 1.073,-1.338"
   id="path352"
   style="stroke-width:20.1583" />
	<path
   d="m 266.654,132.952 c -1.925,0.095 -3.845,0.256 -5.765,0.405 -0.36,0.028 -0.724,0.097 -1.076,0.188 -1.231,0.317 -1.638,0.902 -1.513,2.148 0.016,0.155 0.037,0.313 0.073,0.464 0.535,2.245 0.648,4.531 0.68,6.829 0.013,0.884 0.091,1.771 0.188,2.649 0.058,0.515 0.169,1.032 0.327,1.524 0.24,0.742 0.766,1.086 1.539,1.068 0.261,-0.006 0.522,-0.048 0.772,-0.113 1.458,-0.387 2.925,-0.745 4.367,-1.188 1.592,-0.489 3.174,-1.021 4.729,-1.609 0.619,-0.233 1.258,-0.57 1.726,-1.026 1.681,-1.644 2.494,-3.688 2.514,-6.047 0.007,-0.631 -0.112,-1.24 -0.521,-1.752 -0.999,-1.25 -2.192,-2.22 -3.78,-2.625 -0.858,-0.22 -1.705,-0.478 -2.568,-0.674 -0.554,-0.125 -1.132,-0.268 -1.692,-0.241"
   id="path354"
   style="stroke-width:20.1583" />
	<path
   d="m 283.723,287.603 c -1.845,-0.457 -3.489,-1.251 -5.031,-2.385 -2.199,-1.618 -4.176,-3.459 -5.968,-5.521 -1.133,-1.305 -2.326,-2.555 -3.435,-3.881 -2.249,-2.688 -4.425,-5.443 -6.692,-8.115 -2.201,-2.594 -4.473,-5.124 -6.74,-7.657 -0.413,-0.461 -0.928,-0.843 -1.445,-1.187 -0.597,-0.392 -1.263,-0.415 -1.944,-0.181 -0.718,0.244 -1.156,0.709 -1.183,1.485 -0.022,0.683 -0.01,1.368 0.036,2.051 0.116,1.732 0.23,3.467 0.396,5.196 0.284,3.006 0.128,2.596 1.979,4.771 0.853,0.999 1.787,1.692 3.11,1.896 0.862,0.132 1.705,0.449 2.536,0.749 1.505,0.537 2.396,1.937 2.319,3.547 -0.054,1.146 -0.793,1.836 -1.935,1.774 -0.307,-0.015 -0.611,-0.102 -0.915,-0.17 -3.668,-0.808 -7.384,-1.088 -11.129,-1.041 -1.505,0.021 -3.01,0.036 -4.516,0.037 -0.359,0 -0.729,-0.03 -1.078,-0.107 -0.438,-0.101 -0.721,-0.399 -0.813,-0.859 -0.009,-0.052 -0.019,-0.104 -0.024,-0.155 -0.329,-2.804 0.119,-3.596 2.938,-4.092 0.408,-0.073 0.829,-0.063 1.238,-0.128 1.574,-0.247 1.958,-0.835 1.596,-2.378 -0.132,-0.563 -0.273,-1.127 -0.33,-1.699 -0.087,-0.889 -0.169,-1.786 -0.142,-2.677 0.059,-1.955 -0.102,-3.895 -0.268,-5.835 -0.188,-2.204 -0.266,-4.418 -0.487,-6.617 -0.271,-2.673 -0.775,-5.309 -1.547,-7.886 -0.062,-0.201 -0.12,-0.403 -0.194,-0.602 -0.296,-0.773 -0.837,-1.188 -1.677,-1.118 -0.568,0.049 -1.141,0.097 -1.702,0.181 -0.985,0.146 -1.726,-0.223 -2.261,-1.048 -0.198,-0.31 -0.394,-0.622 -0.555,-0.951 -0.626,-1.283 -0.073,-2.448 1.312,-2.717 1.068,-0.208 2.154,-0.327 3.224,-0.536 3.156,-0.619 6.315,-1.232 9.46,-1.907 3.166,-0.68 6.352,-0.988 9.583,-0.811 1.864,0.104 3.735,0.106 5.593,0.273 1.872,0.169 3.678,0.741 5.344,1.596 1.462,0.75 2.531,1.968 3.236,3.515 0.835,1.828 0.714,3.604 -0.24,5.297 -0.534,0.951 -1.183,1.877 -1.937,2.656 -1.867,1.928 -3.972,3.546 -6.492,4.526 -0.726,0.285 -1.456,0.561 -2.173,0.863 -0.331,0.14 -0.662,0.308 -0.949,0.523 -0.353,0.269 -0.445,0.742 -0.227,1.139 0.175,0.316 0.393,0.621 0.641,0.883 0.361,0.378 0.739,0.749 1.155,1.059 1.763,1.314 3.294,2.895 4.898,4.389 1.229,1.143 2.55,2.138 3.987,3.006 1.332,0.802 2.622,1.713 3.806,2.726 1.958,1.684 4.127,2.999 6.383,4.198 0.413,0.219 0.853,0.396 1.244,0.648 2.175,1.41 4.373,1.671 6.896,1.801 1.44,0.075 2.919,-0.006 4.242,-0.137 23.985,-28.679 38.43,-65.608 38.43,-105.918 0,-71.774 -45.774,-132.848 -109.722,-155.643 0.046,0.278 0.094,0.556 0.141,0.834 0.097,0.566 0.148,1.145 0.301,1.694 0.364,1.315 0.524,2.656 0.619,4.013 0.225,3.173 0.592,6.342 0.418,9.531 -0.055,0.987 -0.247,1.965 -0.333,2.95 -0.11,1.283 -1.607,2.189 -2.718,2.105 -1.521,-0.116 -2.802,-0.739 -3.867,-1.831 -1.374,-1.408 -2.029,-3.131 -2.243,-5.051 -0.053,-0.467 -0.1,-0.936 -0.109,-1.405 -0.07,-2.763 -0.332,-5.522 -0.113,-8.289 0.138,-1.716 0.292,-3.43 0.424,-4.968 10e-4,-0.697 -0.001,-1.378 -0.004,-2.052 -15.188,-4.605 -31.299,-7.09 -47.991,-7.09 -91.237,0 -165.2,73.962 -165.2,165.2 0,20.253 3.652,39.651 10.321,57.583 1.574,-0.771 3.148,-1.544 4.744,-2.269 1.234,-0.562 3.078,-1.598 4.35,-2.073 0.874,-0.323 1.478,-0.874 1.953,-1.691 0.52,-0.896 1.145,-1.755 1.85,-2.514 4.778,-5.13 8.401,-10.166 12.672,-15.706 2.422,-3.142 4.904,-6.237 7.374,-9.344 1.624,-2.043 3.242,-4.092 4.92,-6.09 1.947,-2.319 3.97,-4.574 5.935,-6.877 1.658,-1.946 3.301,-3.907 4.918,-5.888 2.513,-3.079 4.679,-6.405 6.851,-9.728 0.541,-0.828 1.154,-1.611 1.771,-2.389 1.207,-1.525 2.235,-3.14 2.862,-5.001 0.352,-1.037 0.777,-2.049 1.192,-3.064 0.177,-0.432 0.37,-0.866 0.627,-1.254 0.539,-0.812 1.332,-1.208 2.291,-1.01 1.628,0.337 3.299,0.549 4.729,1.535 0.419,0.289 0.929,0.491 1.426,0.612 1.229,0.299 1.845,1.116 2.068,2.286 0.188,0.974 0.287,1.966 0.495,2.934 0.547,2.55 1.131,5.092 1.705,7.636 0.838,3.714 1.678,7.428 2.52,11.144 0.426,1.883 0.849,3.766 1.283,5.646 0.613,2.641 1.228,5.284 1.862,7.921 0.146,0.606 0.332,1.212 0.579,1.784 0.93,2.155 1.903,4.293 2.839,6.445 0.442,1.019 1.159,1.688 2.208,2.073 0.68,0.252 1.325,0.612 1.963,0.966 0.851,0.47 1.475,1.181 1.856,2.061 0.201,0.464 0.318,0.995 0.336,1.501 0.029,0.824 -0.312,1.194 -1.146,1.441 -1.066,0.314 -2.162,0.322 -3.72,0.251 -0.949,0.088 -2.361,0.155 -3.752,0.361 -2.425,0.358 -4.836,0.812 -7.256,1.204 -2.644,0.434 -5.141,1.354 -7.649,2.244 -0.393,0.14 -0.773,0.322 -1.176,0.425 -1.2,0.311 -2.186,-0.229 -2.563,-1.414 -0.159,-0.492 -0.254,-1.011 -0.36,-1.521 -0.145,-0.693 0.119,-1.224 0.683,-1.623 0.085,-0.062 0.167,-0.126 0.257,-0.179 2.329,-1.39 4.563,-2.952 7.123,-3.915 0.78,-0.294 1.579,-0.538 2.372,-0.797 1.557,-0.51 2.188,-1.404 2.083,-3.039 -0.04,-0.624 -0.11,-1.252 -0.24,-1.862 -0.282,-1.327 -0.609,-2.646 -0.925,-3.964 -0.048,-0.202 -0.127,-0.398 -0.2,-0.593 -0.257,-0.668 -0.761,-0.976 -1.46,-0.951 -0.312,0.011 -0.626,0.051 -0.929,0.123 -1.016,0.237 -2.059,0.409 -3.03,0.769 -3.052,1.128 -6.231,1.745 -9.396,2.401 -3.882,0.806 -7.802,1.426 -11.679,2.254 -2.701,0.577 -5.356,1.366 -8.03,2.066 -0.627,0.164 -1.138,0.521 -1.513,1.053 -0.392,0.554 -0.786,1.104 -1.145,1.683 -1.959,3.146 -3.941,6.278 -5.842,9.46 -0.854,1.43 -1.585,2.94 -2.279,4.458 -0.595,1.296 -0.154,1.98 1.284,2.086 1.04,0.076 2.091,0 3.131,0.076 0.984,0.073 1.137,0.16 2.085,0.41 2.45,0.644 4.06,2.866 3.481,5.326 -0.153,0.651 -0.533,1.15 -1.158,1.383 -0.481,0.179 -1,0.282 -1.511,0.354 -4.184,0.611 -7.521,1.19 -11.7,1.817 -1.236,0.187 -2.456,0.487 -3.68,0.748 -5.257,1.123 -10.482,2.376 -15.67,3.781 -0.504,0.137 -1.008,0.305 -1.521,0.368 -0.206,0.025 -0.414,0.04 -0.621,0.058 25.001,59.466 83.797,101.224 152.352,101.224 45.045,0 85.871,-18.035 115.672,-47.271 -0.725,-0.094 -1.434,-0.243 -2.028,-0.391 m -29.361,-54.981 c -1.854,0.204 -3.699,0.501 -5.547,0.778 -1.646,0.25 -3.26,0.64 -4.769,1.389 -0.094,0.046 -0.188,0.095 -0.284,0.129 -1.033,0.364 -1.755,0.071 -2.116,-0.948 -0.227,-0.638 -0.332,-1.32 -0.404,-1.617 -0.053,-1.351 0.308,-2.097 1.101,-2.674 1.317,-0.961 1.363,-1.291 0.417,-2.663 -0.388,-0.559 -0.83,-1.079 -1.279,-1.589 -0.518,-0.589 -1.187,-0.841 -1.961,-0.742 -0.565,0.071 -1.128,0.173 -1.69,0.271 -3.222,0.551 -6.441,1.111 -9.666,1.65 -0.807,0.137 -1.434,0.504 -1.995,1.111 -0.926,0.999 -1.925,1.928 -2.353,3.289 -0.094,0.301 -0.224,0.591 -0.305,0.895 -0.27,1.009 -0.124,1.438 0.675,2.052 0.248,0.189 0.523,0.346 0.759,0.55 0.982,0.853 1.16,1.975 0.877,3.164 -0.086,0.357 -0.438,0.74 -0.769,0.932 -0.531,0.308 -1.13,0.557 -1.729,0.671 -1.436,0.273 -2.817,0.711 -4.191,1.191 -1.96,0.685 -3.918,1.378 -5.878,2.064 -1.104,0.39 -1.669,0.12 -1.995,-1.007 -0.177,-0.604 -0.303,-1.229 -0.376,-1.854 -0.136,-1.131 0.345,-1.955 1.406,-2.353 0.974,-0.361 1.979,-0.63 2.969,-0.946 2.469,-0.795 2.492,-0.831 3.199,-3.325 0.505,-1.773 1.12,-3.504 1.906,-5.172 2.174,-4.609 4.152,-9.306 5.905,-14.098 0.089,-0.246 0.185,-0.489 0.26,-0.743 0.192,-0.637 0.142,-1.232 -0.239,-1.808 -0.26,-0.39 -0.512,-0.805 -0.654,-1.246 -0.252,-0.764 0.019,-1.356 0.729,-1.701 0.615,-0.295 1.256,-0.443 1.959,-0.379 2.044,0.189 3.785,1.047 5.311,2.396 0.466,0.413 0.872,0.898 1.277,1.379 2.136,2.514 4.271,5.023 6.386,7.557 1.846,2.21 3.671,4.438 5.487,6.672 1.766,2.169 1.896,2.238 4.647,1.936 0.979,-0.107 1.959,-0.223 2.938,-0.339 1.563,-0.188 2.36,1.095 2.407,2.262 0.077,1.892 -0.988,2.709 -2.415,2.866 m -59.203,-34.607 c 0.252,0.738 0.687,1.278 1.475,1.484 0.302,0.08 0.598,0.188 0.891,0.297 1.131,0.418 1.746,1.293 2.051,2.404 0.246,0.9 -0.111,1.7 -0.972,2.061 -0.469,0.194 -1.007,0.313 -1.514,0.313 -3.057,0.005 -6.025,0.506 -8.939,1.402 -0.694,0.214 -1.417,0.36 -2.136,0.477 -1.066,0.17 -1.971,-0.182 -2.625,-1.045 -0.375,-0.497 -0.729,-1.024 -1.001,-1.583 -0.296,-0.605 -0.168,-1.111 0.381,-1.529 0.579,-0.441 1.19,-0.863 1.846,-1.172 0.922,-0.437 1.482,-1.126 1.786,-2.063 0.451,-1.386 1.044,-2.729 1.209,-4.203 0.061,-0.514 0.201,-1.025 0.366,-1.52 0.505,-1.507 0.659,-3.055 0.629,-4.632 -0.006,-0.313 0.023,-0.628 0.005,-0.939 -0.155,-2.825 0.152,-5.634 0.259,-8.45 0.017,-0.417 0.034,-0.836 0.015,-1.253 -0.053,-0.978 -0.432,-1.404 -1.4,-1.581 -0.357,-0.063 -0.726,-0.065 -1.09,-0.099 -0.736,-0.05 -1.333,0.229 -1.804,0.775 -0.932,1.075 -2.09,1.887 -3.196,2.759 -0.86,0.678 -1.691,1.393 -2.536,2.093 -0.321,0.266 -0.625,0.558 -0.971,0.789 -0.207,0.137 -0.476,0.233 -0.724,0.255 -0.986,0.084 -2.43,-1.226 -2.435,-2.24 -0.003,-0.515 0.063,-1.047 0.202,-1.544 0.408,-1.456 0.862,-2.897 1.308,-4.344 0.34,-1.098 0.706,-2.188 0.696,-3.36 -0.002,-0.152 0.021,-0.313 0.06,-0.465 0.204,-0.818 0.785,-1.229 1.635,-1.05 0.917,0.194 1.851,0.389 2.716,0.737 2.063,0.829 4.222,1.163 6.411,1.346 2.133,0.177 4.272,0.255 6.404,0.446 1.213,0.106 2.404,0.019 3.588,-0.169 1.96,-0.312 3.891,-0.745 5.774,-1.398 3.064,-1.063 6.045,-2.293 8.917,-3.812 1.891,-1 3.864,-1.843 5.779,-2.796 1.105,-0.553 2.034,-0.222 2.884,0.483 0.353,0.293 0.632,0.696 0.875,1.092 0.871,1.427 1.761,2.845 2.543,4.318 0.436,0.82 0.69,1.74 0.981,2.63 0.093,0.282 0.09,0.622 0.039,0.921 -0.105,0.643 -0.548,0.977 -1.204,1.009 -0.55,0.03 -1.04,-0.125 -1.456,-0.468 -0.361,-0.298 -0.727,-0.606 -1.022,-0.967 -0.636,-0.773 -1.472,-1.127 -2.422,-1.313 -0.921,-0.18 -1.837,-0.388 -2.75,-0.602 -0.479,-0.113 -0.931,-0.081 -1.376,0.119 -0.428,0.191 -0.864,0.37 -1.287,0.575 -2.441,1.186 -4.924,2.269 -7.496,3.152 -2.279,0.786 -4.608,1.324 -6.989,1.682 -0.566,0.085 -1.134,0.188 -1.691,0.313 -0.61,0.142 -0.985,0.562 -1.204,1.129 -0.038,0.099 -0.068,0.198 -0.091,0.301 -0.532,2.394 -1.139,4.769 -1.256,7.239 -0.133,2.765 -0.355,5.522 -0.552,8.282 -0.092,1.269 0.003,2.507 0.414,3.714 m -32.64,6.324 c 0.405,0.085 0.833,0.074 1.25,0.103 0.846,0.063 1.661,0.237 2.395,0.666 1.109,0.652 1.701,2.581 1.109,3.709 -0.131,0.251 -0.419,0.507 -0.687,0.592 -0.803,0.255 -1.637,0.465 -2.48,0.312 -1.306,-0.238 -2.619,-0.152 -3.924,-0.05 -3.247,0.252 -6.471,0.696 -9.646,1.475 -1.225,0.299 -2.459,0.563 -3.696,0.806 -1.047,0.202 -1.604,-0.18 -1.831,-1.178 -0.011,-0.049 -0.017,-0.101 -0.026,-0.15 -0.379,-2.157 -0.088,-2.702 1.96,-3.643 0.479,-0.219 0.965,-0.424 1.454,-0.614 2.441,-0.953 4.525,-2.445 6.432,-4.208 0.712,-0.659 1.176,-1.447 1.485,-2.365 0.501,-1.481 1.087,-2.938 1.631,-4.404 0.219,-0.588 0.436,-1.176 0.623,-1.771 1.431,-4.526 2.871,-9.053 4.268,-13.589 0.612,-1.991 1.102,-4.021 1.698,-6.019 1.044,-3.498 2.16,-6.975 3.184,-10.478 1.109,-3.804 2.145,-7.628 3.213,-11.442 0.195,-0.703 0.409,-1.402 0.577,-2.111 0.118,-0.505 0.206,-1.02 0.257,-1.535 0.081,-0.814 -0.19,-1.494 -0.726,-2.135 -0.49,-0.586 -0.855,-1.281 -1.234,-1.952 -0.148,-0.262 -0.218,-0.584 -0.26,-0.888 -0.143,-1.024 0.285,-1.71 1.332,-1.972 1.018,-0.255 2.055,-0.479 3.095,-0.573 3.189,-0.288 6.37,-0.62 9.494,-1.396 0.404,-0.1 0.827,-0.128 1.242,-0.188 0.875,-0.031 1.64,0.241 1.905,1.077 0.541,1.686 1.713,2.95 2.771,4.271 3.179,3.979 6.808,7.525 10.831,10.67 0.448,0.353 0.916,0.688 1.411,0.969 0.711,0.4 1.293,0.26 1.788,-0.401 0.22,-0.292 0.399,-0.617 0.558,-0.946 1.693,-3.552 3.808,-6.866 5.974,-10.149 0.261,-0.395 0.524,-0.788 0.737,-1.207 0.313,-0.62 0.27,-1.221 -0.253,-1.71 -0.491,-0.461 -0.996,-0.908 -1.515,-1.338 -0.357,-0.3 -0.756,-0.551 -1.124,-0.838 -1.063,-0.833 -0.952,-2.281 0.277,-2.916 0.646,-0.33 1.365,-0.59 2.076,-0.692 1.35,-0.197 2.717,-0.253 4.078,-0.378 2.928,-0.27 5.854,-0.536 8.781,-0.824 0.52,-0.051 1.029,-0.2 1.544,-0.308 0.464,-0.099 0.922,-0.232 1.389,-0.297 1.21,-0.164 1.766,0.181 2.123,1.305 0.141,0.442 0.256,0.896 0.35,1.352 0.17,0.82 -0.029,1.269 -0.823,1.642 -0.615,0.29 -1.262,0.556 -1.921,0.71 -1.808,0.423 -3.454,1.229 -5.151,1.945 -2.139,0.902 -3.715,2.329 -4.997,4.171 -0.209,0.303 -0.445,0.588 -0.641,0.897 -1.543,2.434 -3.158,4.828 -4.597,7.322 -1.568,2.722 -2.91,5.564 -4.022,8.5 -0.486,1.284 -1.199,2.436 -1.954,3.568 -0.201,0.303 -0.465,0.574 -0.739,0.814 -0.375,0.329 -0.816,0.475 -1.313,0.285 -0.193,-0.074 -0.401,-0.124 -0.587,-0.218 -1.157,-0.591 -2.371,-1.102 -3.45,-1.808 -1.65,-1.078 -3.25,-2.241 -4.796,-3.461 -3.137,-2.475 -6.189,-5.05 -9.489,-7.319 -1.069,-0.734 -2.102,-1.524 -3.151,-2.286 -0.252,-0.184 -0.501,-0.373 -0.771,-0.526 -0.973,-0.547 -1.621,-0.423 -2.344,0.439 -0.612,0.735 -1.058,1.546 -1.282,2.485 -0.169,0.704 -0.439,1.386 -0.686,2.071 -0.366,1.033 -0.794,2.046 -1.118,3.09 -1.518,4.881 -3.008,9.769 -4.508,14.654 -0.062,0.197 -0.146,0.394 -0.192,0.596 -0.91,3.91 -2.16,7.728 -3.356,11.56 -1.555,4.979 -2.826,10.039 -4.621,14.949 -0.214,0.583 -0.348,1.206 -0.428,1.82 -0.113,0.809 0.249,1.29 1.047,1.458 m -24.277,-5.506 c 0.137,0.852 0.273,1.703 0.4,2.557 0.047,0.32 0.081,0.646 0.091,0.967 0.033,0.97 0.285,2.071 -0.24,2.851 -0.698,1.029 -1.709,1.796 -2.854,2.281 -1.513,0.644 -3.13,0.764 -4.05,0.937 -4.489,0.578 -8.315,0.427 -12.117,-0.156 -4.505,-0.689 -8.153,-2.988 -10.844,-7.021 -1.518,-2.271 -2.387,-4.72 -2.569,-7.512 -0.245,-3.758 1.226,-6.567 3.853,-8.813 1.11,-0.948 2.388,-1.587 3.725,-2.076 1.283,-0.47 2.565,-0.958 3.878,-1.313 3.631,-0.983 7.324,-1.361 11.077,-1.021 1.421,0.13 2.762,0.61 4.095,1.12 0.497,0.188 0.917,0.503 1.134,1.018 0.436,1.036 0.897,2.069 1.223,3.146 0.345,1.146 -0.437,1.95 -1.514,1.572 -0.56,-0.197 -1.113,-0.538 -1.565,-0.948 -0.818,-0.742 -1.721,-1.118 -2.773,-1.097 -1.257,0.025 -2.527,-0.045 -3.768,0.128 -2.494,0.344 -4.979,0.802 -7.322,1.834 -0.786,0.347 -1.555,0.748 -2.306,1.176 -0.799,0.455 -1.284,1.192 -1.425,2.163 -0.472,3.245 -0.461,6.455 0.674,9.589 0.37,1.021 0.998,1.752 1.956,2.132 0.472,0.188 0.951,0.375 1.441,0.484 2.128,0.473 4.273,0.789 6.45,0.727 1.007,-0.03 2.014,-0.054 3.021,-0.089 0.302,-0.01 0.604,-0.035 0.902,-0.077 1.447,-0.202 1.815,-0.764 1.588,-2.282 -0.188,-1.253 -0.757,-2.066 -1.957,-2.376 -1.196,-0.306 -2.057,-1.146 -2.633,-2.288 -0.21,-0.414 -0.348,-0.909 -0.377,-1.38 -0.071,-1.111 0.675,-1.976 1.707,-2.038 0.347,-0.02 0.705,0.027 1.049,0.095 1.156,0.223 2.308,0.216 3.46,0.023 1.292,-0.215 2.582,-0.451 3.881,-0.629 0.945,-0.131 1.899,-0.216 2.853,-0.266 0.78,-0.04 1.477,0.256 2.108,0.766 0.978,0.792 1.237,2.873 -0.326,3.625 -0.412,0.197 -0.837,0.369 -1.233,0.601 -0.689,0.394 -0.828,0.755 -0.693,1.59 m -0.33,-23.329 c -1.492,-0.224 -3.014,-0.285 -4.523,-0.335 -1.773,-0.06 -3.55,-0.007 -5.324,-0.032 -1.73,-0.026 -3.435,0.207 -5.132,0.49 -0.685,0.114 -1.346,0.158 -2.006,-0.069 -0.81,-0.281 -1.313,-0.827 -1.41,-1.701 -0.029,-0.258 -0.043,-0.52 -0.061,-0.778 -0.061,-0.884 0.345,-1.502 1.096,-1.916 0.273,-0.15 0.563,-0.271 0.85,-0.396 0.799,-0.347 1.247,-0.983 1.277,-1.821 0.034,-0.932 0.039,-1.887 -0.125,-2.8 -0.36,-2.007 -0.937,-3.953 -1.896,-5.776 -0.36,-0.687 -0.619,-1.445 -0.803,-2.201 -0.249,-1.03 -0.82,-1.785 -1.666,-2.37 -0.429,-0.296 -0.847,-0.616 -1.303,-0.865 -1.234,-0.677 -1.054,-2.469 0.024,-3.141 0.306,-0.191 0.647,-0.344 0.991,-0.452 3.639,-1.135 7.306,-2.146 11.092,-2.674 2.221,-0.312 4.437,-0.664 6.652,-1.012 3.865,-0.604 7.731,-1.2 11.591,-1.838 2.109,-0.348 4.203,-0.784 6.309,-1.158 1.899,-0.338 3.8,-0.678 5.71,-0.948 0.769,-0.109 1.566,-0.093 2.345,-0.039 1.833,0.128 3.156,1.57 3.211,3.417 0.024,0.852 -0.149,1.662 -0.506,2.43 -0.198,0.425 -0.416,0.843 -0.661,1.243 -1.007,1.647 -2.032,3.284 -3.043,4.929 -0.42,0.686 -0.967,1.229 -1.689,1.583 -1.367,0.672 -2.801,0.065 -3.259,-1.386 -0.077,-0.247 -0.087,-0.516 -0.16,-0.765 -0.209,-0.7 -0.423,-1.398 -0.657,-2.089 -0.242,-0.705 -0.732,-1.124 -1.495,-1.189 -0.26,-0.023 -0.518,-0.073 -0.778,-0.081 -2.711,-0.081 -5.414,-0.196 -8.131,0.082 -2.597,0.265 -5.201,0.466 -7.751,1.022 -2.706,0.591 -5.345,1.427 -7.833,2.668 -2.239,1.115 -2.614,2.058 -1.831,4.406 0.1,0.296 0.21,0.593 0.352,0.87 0.306,0.603 0.804,0.972 1.48,1.009 0.675,0.037 1.355,0.009 1.831,0.009 1.763,-0.146 3.324,-0.266 4.882,-0.409 0.414,-0.038 0.822,-0.142 1.231,-0.224 0.9,-0.181 1.472,-0.718 1.761,-1.592 0.197,-0.59 0.379,-1.202 0.685,-1.737 0.864,-1.512 2.12,-1.133 2.953,-0.235 0.483,0.521 0.748,1.194 0.61,1.878 -0.351,1.735 0.037,3.431 0.139,5.143 0.034,0.57 0.063,1.153 -0.02,1.714 -0.134,0.919 -0.723,1.377 -1.649,1.272 -0.446,-0.05 -0.896,-0.249 -1.3,-0.464 -0.313,-0.167 -0.568,-0.454 -0.833,-0.705 -0.517,-0.49 -1.122,-0.735 -1.835,-0.754 -1.835,-0.05 -3.646,0.165 -5.449,0.468 -0.355,0.06 -0.711,0.179 -1.043,0.327 -0.819,0.364 -1.168,1.002 -1.075,1.885 0.098,0.91 0.541,1.444 1.433,1.613 0.509,0.097 1.036,0.132 1.556,0.139 3.612,0.057 7.174,0.561 10.725,1.182 1.283,0.225 2.568,0.453 3.851,0.688 1.051,0.193 1.955,-0.066 2.738,-0.803 0.531,-0.501 1.063,-1.012 1.65,-1.44 0.863,-0.628 1.696,-0.434 2.271,0.452 0.863,1.33 0.798,2.961 -0.202,4.22 -0.52,0.654 -1.072,1.281 -1.634,1.898 -0.792,0.869 -1.795,1.261 -2.959,1.108 -1.24,-0.163 -2.473,-0.387 -3.704,-0.604 -2.52,-0.45 -5.024,-0.967 -7.55,-1.346 m 67.61,5.51 c 0.477,-0.18 1.018,-0.292 1.522,-0.271 1.848,0.071 3.632,-0.313 5.429,-0.633 0.995,-0.175 1.901,-0.527 2.704,-1.154 0.285,-0.225 0.599,-0.425 0.929,-0.569 0.991,-0.431 1.921,-0.112 2.363,0.854 0.417,0.908 0.585,1.898 0.563,2.895 -0.008,0.322 -0.229,0.698 -0.467,0.942 -0.356,0.371 -0.8,0.667 -1.229,0.96 -0.719,0.486 -1.028,1.177 -0.982,2.01 0.034,0.62 0.091,1.258 0.271,1.849 0.408,1.348 0.912,2.665 1.35,4.003 0.331,1.019 0.97,1.699 1.981,2.056 0.591,0.207 1.179,0.434 1.735,0.711 0.836,0.414 1.702,0.433 2.599,0.339 3.06,-0.321 5.357,-1.847 7.101,-4.342 0.938,-1.346 1.667,-2.766 2.066,-4.354 0.113,-0.455 0.255,-0.903 0.385,-1.354 0.476,-1.665 0.807,-3.346 0.625,-5.096 -0.062,-0.565 -0.011,-1.146 -0.011,-1.72 h -0.02 c 0,-0.938 0.002,-1.879 -0.001,-2.818 -0.002,-0.364 0.015,-0.733 -0.033,-1.095 -0.229,-1.758 -0.527,-3.509 -0.709,-5.272 -0.115,-1.131 -0.61,-1.842 -1.709,-2.153 -0.827,-0.235 -1.552,-0.649 -1.938,-1.462 -0.177,-0.369 -0.334,-0.775 -0.37,-1.175 -0.096,-1.056 0.379,-1.78 1.419,-1.915 3.098,-0.402 5.889,-1.73 8.78,-2.764 0.586,-0.209 1.188,-0.403 1.802,-0.493 0.794,-0.116 1.202,0.146 1.423,0.894 0.236,0.798 0.404,1.619 0.563,2.438 0.121,0.613 -0.087,1.152 -0.598,1.515 -0.421,0.301 -0.881,0.552 -1.345,0.786 -0.512,0.257 -1.046,0.472 -1.573,0.7 -1.045,0.452 -1.479,1.262 -1.385,2.378 0.031,0.362 0.067,0.727 0.109,1.09 0.23,2.021 0.52,4.038 0.674,6.063 0.091,1.191 0.006,2.399 -0.067,3.597 -0.083,1.354 -0.22,2.699 0.042,4.056 0.078,0.397 0.056,0.834 -0.005,1.24 -0.426,2.856 -1.255,5.604 -2.525,8.193 -0.994,2.026 -2.331,3.829 -3.988,5.381 -0.927,0.867 -1.97,1.537 -3.167,1.972 -3.096,1.118 -6.241,1.563 -9.532,1.021 -2.754,-0.451 -5.015,-1.691 -6.834,-3.773 -0.688,-0.786 -1.354,-1.59 -2.009,-2.401 -0.838,-1.033 -1.252,-2.283 -1.727,-3.494 -0.321,-0.825 -0.566,-1.68 -0.815,-2.529 -0.266,-0.901 -0.777,-1.536 -1.641,-1.976 -0.685,-0.349 -1.3,-0.854 -1.904,-1.343 -0.547,-0.443 -0.804,-1.09 -0.937,-1.766 -0.174,-0.915 0.215,-1.691 1.086,-2.021 m 104.74,30.591 c -0.37,1.007 -1.245,1.399 -2.11,0.824 -1.206,-0.803 -2.437,-1.587 -3.188,-2.943 -0.659,-1.189 -1.438,-2.313 -2.168,-3.466 -0.228,-0.354 -0.462,-0.701 -0.706,-1.041 -0.546,-0.753 -1.277,-1.039 -2.186,-0.867 -1.783,0.34 -3.565,0.674 -5.349,1.018 -0.867,0.168 -1.723,0.388 -2.593,0.524 -1.053,0.17 -1.964,0.647 -2.865,1.178 -0.691,0.403 -1.058,1.001 -1.055,1.806 0.004,1.729 -0.051,3.447 -0.291,5.171 -0.146,1.026 0.037,2.101 0.079,3.152 0.106,2.683 0.214,5.366 0.329,8.049 0.059,1.314 0.138,2.628 0.208,3.942 0.019,0.314 0.053,0.63 0.065,0.943 0.233,5.259 0.479,10.52 0.688,15.778 0.073,1.841 0.021,3.685 0.1,5.525 0.035,0.834 0.214,1.669 0.396,2.485 0.287,1.285 1.127,1.916 2.411,2.099 1.229,0.173 2.446,0.44 3.654,0.729 2.266,0.542 2.803,2.72 2.539,4.437 -0.086,0.562 -0.417,0.979 -0.991,1.089 -0.4,0.077 -0.82,0.106 -1.229,0.085 -0.41,-0.024 -0.829,-0.104 -1.224,-0.228 -2.409,-0.762 -4.893,-0.868 -7.386,-0.871 -2.543,-0.003 -5.085,0.028 -7.628,0.019 -0.619,-0.003 -1.235,-0.111 -1.854,-0.167 -0.933,-0.085 -1.482,-0.676 -1.89,-1.46 -0.432,-0.835 -0.439,-1.734 -0.281,-2.621 0.123,-0.688 0.635,-1.095 1.298,-1.195 0.611,-0.092 1.24,-0.08 1.601,-0.101 0.834,-0.005 1.41,0.043 1.973,-0.022 1.08,-0.128 1.576,-0.69 1.558,-1.786 -0.015,-0.732 -0.16,-1.464 -0.201,-2.197 -0.176,-3.154 -0.354,-6.31 -0.493,-9.467 -0.152,-3.471 -0.251,-6.943 -0.397,-10.418 -0.034,-0.839 -0.171,-1.675 -0.252,-2.513 -0.428,-4.4 -0.844,-8.801 -1.287,-13.2 -0.085,-0.833 -0.279,-1.655 -0.433,-2.482 -0.199,-1.085 -0.417,-2.167 -0.608,-3.253 -0.219,-1.241 -0.688,-1.69 -1.909,-1.507 -1.998,0.306 -3.981,0.718 -5.97,1.088 -0.917,0.172 -1.83,0.369 -2.75,0.525 -1.103,0.187 -2.055,0.604 -2.88,1.419 -2.641,2.605 -5.327,5.164 -7.995,7.74 -0.038,0.036 -0.073,0.074 -0.11,0.111 -1.057,1.021 -1.352,1.085 -2.604,-0.057 -0.685,-0.623 -1.021,-1.476 -1.146,-2.364 -0.063,-0.436 0.104,-0.938 0.276,-1.363 0.378,-0.923 0.831,-1.814 1.245,-2.722 0.762,-1.671 1.6,-3.309 1.826,-5.178 0.092,-0.747 0.563,-1.274 1.266,-1.456 1.102,-0.28 2.222,-0.506 3.345,-0.68 1.177,-0.182 2.377,-0.218 3.55,-0.419 3.834,-0.657 7.647,-1.439 11.492,-2.024 3.393,-0.515 6.697,-1.397 10.033,-2.166 2.173,-0.499 4.369,-0.899 6.565,-1.27 3.436,-0.578 6.827,-1.32 10.104,-2.529 0.776,-0.288 1.55,-0.604 2.301,-0.957 0.826,-0.391 1.684,-0.522 2.577,-0.435 1.212,0.12 1.971,0.905 2.048,2.156 0.134,2.152 0.227,4.311 0.349,6.466 0.086,1.521 0.194,3.046 0.284,4.566 0.031,0.526 0.066,1.055 0.05,1.579 -0.007,0.313 -0.076,0.632 -0.181,0.922 m -25.716,-80.833 c 1.823,0.981 2.894,2.475 2.949,4.636 0.042,1.583 -0.132,3.107 -0.595,4.63 -0.425,1.397 -1.146,2.554 -2.235,3.51 -1.854,1.629 -3.891,2.987 -6.089,4.101 -1.35,0.686 -2.708,1.353 -4.063,2.03 -0.326,0.163 -0.66,0.316 -0.972,0.505 -1.121,0.68 -1.214,1.33 -0.33,2.244 0.072,0.074 0.153,0.141 0.228,0.214 2.969,2.868 6.082,5.571 9.239,8.227 1.967,1.653 4.145,2.992 6.364,4.269 0.949,0.546 1.894,1.107 2.868,1.604 1.627,0.825 3.278,1.604 4.919,2.405 0.703,0.344 1.407,0.682 2.1,1.047 1.8,0.957 3.63,1.85 5.566,2.493 3.809,1.269 6.876,0.334 9.843,-0.331 0.651,-0.079 4.559,-3.349 6.349,-0.729 0.341,0.5 0.424,1.104 0.078,1.895 -0.618,1.409 -1.41,2.693 -2.415,3.741 -1.74,1.813 -4.272,3.963 -6.219,5.003 -1.64,0.875 -3.37,1.344 -5.238,1.419 -5.539,0.218 -10.64,-1.128 -15.34,-4.076 -4.305,-2.696 -8.283,-5.821 -12.127,-9.125 -1.9,-1.631 -3.724,-3.353 -5.576,-5.039 -0.311,-0.279 -0.614,-0.568 -0.891,-0.88 -1.945,-2.182 -3.871,-4.38 -5.828,-6.551 -1.083,-1.201 -2.218,-2.355 -3.324,-3.534 -0.66,-0.702 -1.452,-0.775 -2.3,-0.465 -0.79,0.291 -1.104,0.931 -1.079,1.732 0.052,1.772 0.105,3.547 0.207,5.318 0.137,2.448 0.303,4.895 0.483,7.339 0.247,3.329 0.253,6.679 0.822,9.983 0.134,0.766 0.104,1.562 0.163,2.342 0.038,0.521 0.093,1.039 0.156,1.558 0.081,0.665 0.423,1.185 0.99,1.521 0.852,0.506 1.695,1.042 2.601,1.435 0.501,0.217 1.115,0.203 1.681,0.226 0.571,0.019 1.148,-0.1 1.719,-0.069 1.401,0.081 2.352,0.865 2.663,2.229 0.126,0.552 0.149,1.138 0.142,1.707 -0.016,0.808 -0.258,1.137 -1.062,1.329 -0.809,0.192 -1.641,0.365 -2.469,0.393 -2.202,0.067 -4.34,0.594 -6.516,0.844 -4.484,0.519 -8.78,1.796 -13.03,3.259 -0.196,0.067 -0.396,0.132 -0.597,0.188 -1.476,0.418 -2.11,0.121 -2.406,-1.335 -0.484,-2.369 0.13,-3.743 1.896,-4.649 0.866,-0.442 1.512,-1.08 2.099,-1.831 0.739,-0.942 1.518,-1.859 2.317,-2.754 0.521,-0.577 0.776,-1.228 0.771,-1.987 -0.017,-1.724 -0.033,-3.445 -0.075,-5.167 -0.024,-1.043 -0.113,-2.084 -0.152,-3.126 -0.131,-3.392 -0.194,-6.786 -0.395,-10.171 -0.165,-2.812 -0.493,-5.613 -0.729,-8.422 -0.162,-1.924 -0.229,-3.858 -0.449,-5.775 -0.447,-3.887 -0.967,-7.766 -1.462,-11.646 -0.079,-0.621 -0.147,-1.246 -0.277,-1.856 -0.278,-1.308 -0.812,-1.671 -2.104,-1.461 -0.67,0.108 -1.329,0.271 -1.997,0.387 -0.358,0.062 -0.729,0.115 -1.089,0.103 -0.965,-0.031 -1.555,-0.589 -1.604,-1.557 -0.039,-0.728 0.002,-1.461 0.014,-2.192 0.008,-0.479 0.28,-0.782 0.705,-0.932 0.395,-0.136 0.8,-0.247 1.207,-0.323 2.819,-0.528 5.605,-1.239 8.471,-1.507 1.401,-0.131 2.802,-0.303 4.202,-0.448 3.374,-0.35 6.742,-0.713 10.133,-0.923 4.864,-0.301 9.576,0.387 14.203,1.801 0.994,0.294 1.973,0.703 2.886,1.194 M 247.82,65.421 c 2.419,0.646 4.818,1.374 7.213,2.107 0.843,0.26 1.662,0.607 2.471,0.97 1.188,0.534 2.365,1.099 3.531,1.681 3.114,1.553 5.554,3.871 7.47,6.746 1.805,2.708 3.17,5.637 4.262,8.696 0.568,1.593 0.713,3.259 0.833,4.924 0.063,0.883 0.011,1.772 0.011,2.66 0.322,3.677 -0.562,7.147 -1.904,10.523 -0.425,1.066 -0.961,2.086 -1.397,3.147 -0.746,1.809 -1.881,3.366 -3.052,4.906 -0.521,0.682 -1.204,1.151 -1.927,1.575 -1.801,1.059 -3.602,2.111 -5.41,3.151 -0.313,0.18 -0.656,0.343 -1.007,0.415 -0.888,0.184 -1.655,0.611 -2.437,1.037 -3.02,1.65 -6.28,2.551 -9.671,2.946 -2.954,0.345 -5.923,0.557 -8.886,0.821 -0.521,0.047 -1.042,0.096 -1.563,0.09 -3.456,-0.027 -6.878,0.41 -10.299,0.785 -1.91,0.209 -3.785,0.723 -5.677,1.1 -0.459,0.092 -0.914,0.237 -1.378,0.273 -0.705,0.055 -1.199,-0.341 -1.343,-1.044 -0.214,-1.045 -0.084,-2.083 0.178,-3.099 0.148,-0.585 0.56,-1.002 1.125,-1.226 0.388,-0.151 0.787,-0.276 1.19,-0.379 1.947,-0.486 2.904,-1.929 3.478,-3.684 0.207,-0.633 0.257,-1.336 0.274,-2.01 0.06,-1.982 0.07,-3.967 0.09,-5.949 0.009,-0.731 -0.039,-1.463 -0.016,-2.193 0.155,-4.86 -0.147,-9.704 -0.545,-14.545 -0.201,-2.442 -0.266,-4.896 -0.455,-7.342 -0.249,-3.225 -0.605,-6.439 -1.143,-9.633 -0.202,-1.203 -0.787,-1.881 -1.972,-2.087 -0.462,-0.08 -0.914,-0.225 -1.379,-0.286 -1.383,-0.188 -2.53,-0.945 -3.743,-1.538 -0.547,-0.268 -0.895,-0.762 -0.893,-1.38 0.003,-0.725 0.007,-1.473 0.187,-2.165 0.293,-1.138 1.207,-1.821 2.347,-1.617 1.252,0.224 2.487,-0.046 3.735,0.126 0.857,0.118 1.761,-0.127 2.646,-0.156 2.032,-0.068 4.074,-0.05 6.081,-0.412 1.381,-0.249 5.5,-1.1 5.921,-0.301 0.578,1.098 0.857,2.274 0.44,3.477 -0.45,1.3 -3.181,3.587 -2.854,9.482 -0.145,0.467 -0.142,3.92 -0.142,4.544 -0.003,6.317 0.025,12.636 0.007,18.952 -0.012,3.197 0.452,6.349 0.79,9.513 0.055,0.52 0.144,1.036 0.177,1.557 0.095,1.536 0.749,2.812 1.824,3.876 0.668,0.659 1.387,1.267 2.08,1.9 0.488,0.447 1.063,0.644 1.721,0.618 0.729,-0.027 1.462,-0.037 2.19,-0.094 1.873,-0.147 3.747,-0.29 5.615,-0.487 0.722,-0.076 1.436,-0.259 2.137,-0.452 0.822,-0.226 1.467,-0.704 2.026,-1.383 0.523,-0.632 1.188,-1.168 1.856,-1.652 0.971,-0.703 1.998,-1.332 3.013,-1.974 2.559,-1.614 4.247,-3.977 5.648,-6.577 0.266,-0.495 0.418,-1.071 0.528,-1.629 0.546,-2.713 0.999,-5.441 1.132,-8.211 0.082,-1.732 -0.157,-3.438 -0.57,-5.118 -0.664,-2.701 -1.643,-5.278 -3.12,-7.649 -0.111,-0.178 -0.198,-0.373 -0.326,-0.535 -1.943,-2.456 -3.827,-4.975 -6.343,-6.896 -0.697,-0.53 -2.658,-3.519 -7.868,-4.855 -1.001,-0.272 -2.005,-0.547 -2.992,-0.88 -0.815,-0.275 -1.333,-0.807 -1.411,-1.519 -0.081,-0.729 -0.153,-0.269 -0.031,-0.982 0.167,-0.981 0.982,-1.98 2.819,-1.71 1.976,0.291 3.099,0.622 4.708,1.051 m -36.043,-7.274 c -1.062,-0.342 -1.731,-1.096 -1.994,-2.214 -0.257,-1.091 -0.277,-2.151 0.089,-3.229 0.427,-1.252 1.12,-1.764 2.442,-1.687 0.936,0.054 1.87,0.111 2.805,0.154 4.695,0.218 9.386,-0.041 14.074,-0.21 1.721,-0.063 3.441,-0.062 5.162,-0.103 0.99,-0.023 1.979,-0.089 2.968,-0.108 0.729,-0.015 1.462,-0.025 2.188,0.035 0.805,0.066 1.387,0.514 1.538,1.325 0.151,0.814 0.229,1.646 0.284,2.473 0.034,0.525 -0.287,0.881 -0.773,1.056 -0.343,0.123 -0.695,0.239 -1.052,0.303 -1.692,0.305 -3.376,0.638 -5.057,1.013 -1.725,0.385 -3.494,0.598 -5.256,0.791 -2.951,0.321 -5.913,0.568 -8.104,0.775 -2.859,0.042 -4.945,0.118 -7.028,0.083 -0.766,-0.013 -1.548,-0.219 -2.286,-0.457 m -8.221,-17.699 c 0.483,-0.862 1.333,-1.244 2.273,-0.939 1.014,0.328 1.934,0.122 2.91,-0.08 1.067,-0.22 2.162,-0.35 3.252,-0.407 3.229,-0.167 6.456,-0.311 9.688,-0.403 3.909,-0.113 7.818,-0.15 11.729,-0.249 1.929,-0.05 3.855,-0.146 5.781,-0.258 1.225,-0.071 2.234,0.386 3.164,1.116 0.438,0.344 0.663,0.778 0.69,1.338 0.109,2.277 -1.393,3.993 -3.653,4.254 -1.654,0.191 -3.294,0.497 -4.946,0.717 -3.201,0.426 -6.399,0.88 -9.612,1.225 -3.886,0.416 -7.771,0.871 -11.828,0.738 -2.257,0.431 -4.521,-0.244 -6.806,-0.785 -0.253,-0.061 -0.508,-0.129 -0.746,-0.23 -2.846,-1.204 -3.237,-3.653 -1.896,-6.037 m 1.772,60.002 c 0.445,0.766 0.896,1.53 1.38,2.274 0.226,0.345 0.506,0.668 0.813,0.942 0.444,0.396 1.05,0.201 1.247,-0.376 0.066,-0.195 0.114,-0.405 0.125,-0.61 0.091,-1.771 0.171,-3.541 0.256,-5.312 0.082,-1.666 0.168,-3.332 0.252,-4.997 0.024,-0.47 0.081,-0.938 0.063,-1.405 -0.031,-0.697 -0.396,-1.192 -1.086,-1.359 -0.828,-0.199 -1.582,-0.533 -2.233,-1.081 -0.28,-0.233 -0.563,-0.473 -0.791,-0.754 -0.838,-1.025 -0.656,-2.152 0.528,-2.726 0.979,-0.475 2.013,-0.894 3.066,-1.153 1.476,-0.363 2.92,-0.779 4.324,-1.354 0.431,-0.176 0.898,-0.265 1.354,-0.373 1.171,-0.28 2.148,0.063 2.996,0.901 0.62,0.614 0.768,1.385 0.244,2.101 -0.267,0.366 -0.661,0.656 -1.041,0.917 -0.558,0.384 -1.162,0.699 -1.73,1.065 -0.517,0.331 -0.789,0.808 -0.802,1.438 -0.063,3.234 -0.165,6.467 -0.194,9.702 -0.013,1.406 0.155,2.813 0.171,4.222 0.031,2.765 0.044,5.531 0.006,8.297 -0.021,1.722 -0.132,3.442 -0.239,5.161 -0.05,0.778 -0.132,1.563 -0.302,2.322 -0.24,1.076 -0.921,1.614 -2.003,1.63 -1.391,0.021 -2.501,-0.394 -3.187,-1.783 -2.063,-4.174 -4.708,-7.997 -7.251,-11.881 -0.229,-0.347 -0.484,-0.684 -0.78,-0.972 -0.445,-0.433 -1.048,-0.211 -1.164,0.418 -0.065,0.356 -0.085,0.727 -0.078,1.089 0.016,0.783 0.083,1.564 0.09,2.348 0.018,1.511 0.006,3.024 0.006,4.535 h -0.035 c -0.044,2.087 -0.089,4.175 -0.128,6.262 -0.008,0.365 0.022,0.73 0.018,1.097 -0.021,1.278 0.5,2.22 1.706,2.724 0.572,0.24 0.991,0.572 0.938,1.273 -0.058,0.773 -0.312,1.435 -1.052,1.793 -0.994,0.48 -2.046,0.777 -3.137,0.942 -1.545,0.232 -3.09,0.464 -4.634,0.697 -0.259,0.039 -0.517,0.101 -0.773,0.119 -0.493,0.032 -0.933,-0.097 -1.253,-0.502 -0.228,-0.287 -0.462,-0.568 -0.663,-0.873 -0.399,-0.606 -0.39,-1 0.108,-1.545 0.562,-0.616 1.166,-1.195 1.766,-1.776 0.584,-0.565 0.877,-1.225 1.006,-2.05 0.486,-3.07 0.185,-6.145 0.12,-9.214 -0.077,-3.653 -0.237,-7.304 -0.386,-10.954 -0.042,-1.041 -0.174,-2.078 -0.255,-3.117 -0.113,-1.456 -0.275,-2.912 -0.309,-4.371 -0.026,-1.326 -0.661,-2.266 -1.604,-3.08 -0.237,-0.205 -0.503,-0.384 -0.702,-0.62 -0.494,-0.588 -0.765,-1.24 -0.454,-2.021 0.325,-0.816 0.922,-1.241 1.797,-1.263 1.252,-0.031 2.504,-0.073 3.756,-0.063 0.518,0.004 1.033,0.123 1.548,0.211 1.015,0.173 1.747,0.742 2.06,1.713 0.585,1.825 1.768,3.298 2.741,4.899 1.301,2.141 2.519,4.33 3.781,6.493 M 151.883,76.392 c 1.287,-0.42 2.603,-0.785 3.932,-1.038 2.511,-0.479 5.052,-0.8 7.558,-1.297 3.271,-0.648 6.629,-0.84 9.826,-1.907 0.98,-0.326 2.039,-0.418 3.063,-0.618 1.688,-0.331 3.381,-0.658 5.067,-0.998 2.608,-0.526 5.219,-1.047 7.819,-1.602 0.765,-0.162 1.527,-0.377 2.25,-0.667 1.672,-0.67 3.468,-0.722 5.197,-1.099 0.818,-0.18 1.483,0.186 1.761,0.961 0.738,2.057 1.967,3.93 2.282,6.146 0.072,0.513 0.298,1 0.409,1.51 0.098,0.454 0.202,0.925 0.188,1.385 -0.034,1.134 -0.854,1.832 -1.98,1.683 -0.456,-0.061 -0.911,-0.233 -1.332,-0.43 -1.09,-0.508 -2.139,-1.094 -3.062,-1.882 -0.275,-0.237 -0.569,-0.456 -0.862,-0.676 -0.659,-0.494 -1.384,-0.713 -2.209,-0.505 -0.252,0.064 -0.521,0.069 -0.77,0.141 -2.669,0.767 -5.434,1.027 -8.149,1.54 -1.689,0.318 -3.41,0.465 -5.112,0.726 -2.063,0.315 -4.127,0.631 -6.179,1.016 -2.308,0.436 -4.601,0.948 -6.897,1.429 -0.204,0.042 -0.405,0.103 -0.607,0.147 -1.037,0.229 -1.604,0.849 -1.77,1.92 -0.209,1.35 -0.292,2.694 -0.245,4.058 0.075,2.19 0.11,3.25 0.162,5.44 -0.032,10e-4 -0.063,0.002 -0.095,0.002 0.061,2.977 0.123,5.953 0.186,8.929 0.003,0.155 0.014,0.313 0.039,0.468 0.11,0.65 0.51,0.993 1.186,1.013 0.154,0.004 0.313,-0.009 0.467,-0.036 2.622,-0.459 5.266,-0.826 7.788,-1.718 0.631,-0.223 1.256,-0.54 1.793,-0.937 1.126,-0.831 1.891,-1.919 2.101,-3.357 0.172,-1.188 0.396,-2.368 0.631,-3.545 0.104,-0.509 0.233,-1.025 0.448,-1.493 0.326,-0.711 1.081,-1.021 1.839,-0.826 0.863,0.224 1.493,0.732 1.818,1.577 0.345,0.894 0.472,1.822 0.349,2.77 -0.108,0.826 -0.246,1.652 -0.414,2.47 -0.408,1.994 -0.851,3.98 -1.265,5.973 -0.32,1.537 -0.498,3.085 -0.457,4.664 0.021,0.825 -0.116,1.657 -0.225,2.481 -0.04,0.302 -0.173,0.604 -0.313,0.878 -0.706,1.367 -1.856,1.541 -2.876,0.417 -0.825,-0.91 -1.411,-1.943 -1.393,-3.229 0.002,-0.155 -0.001,-0.313 -0.01,-0.47 -0.082,-1.624 -0.556,-2.063 -2.185,-1.737 -1.838,0.368 -3.696,0.688 -5.441,1.433 -0.671,0.287 -1.377,0.487 -2.066,0.726 -1.67,0.575 -2.005,0.994 -2.019,2.714 -0.016,2.036 0.017,5.206 0.019,7.242 0,0.991 -0.044,1.983 -0.027,2.975 0.03,1.825 0.019,3.656 0.158,5.475 0.138,1.786 0.714,2.141 2.487,1.805 2.408,-0.458 4.815,-0.936 7.231,-1.359 0.981,-0.174 1.729,-0.596 2.328,-1.413 0.676,-0.926 1.455,-1.777 2.212,-2.642 1.523,-1.735 2.866,-3.596 3.755,-5.738 0.716,-1.729 2.434,-1.451 3.28,-0.486 0.548,0.625 0.822,1.324 0.674,2.159 -0.313,1.746 -0.607,3.49 -1.219,5.172 -0.57,1.567 -1.034,3.175 -1.545,4.764 -0.08,0.249 -0.158,0.497 -0.243,0.744 -0.484,1.405 -0.669,1.572 -2.119,1.587 -2.413,0.026 -4.776,0.456 -7.156,0.782 -4.247,0.582 -8.4,1.624 -12.588,2.5 -1.583,0.331 -3.165,0.663 -4.75,0.986 -0.355,0.071 -0.723,0.096 -1.081,0.164 -1.601,0.311 -2.832,-0.441 -3.979,-1.401 -0.232,-0.194 -0.415,-0.472 -0.558,-0.745 -0.524,-1.006 -0.221,-1.851 0.818,-2.287 0.673,-0.282 1.367,-0.514 2.04,-0.799 0.479,-0.203 0.952,-0.43 1.404,-0.69 1.153,-0.664 1.912,-1.556 1.878,-3.007 -0.026,-1.093 0.106,-2.188 0.156,-3.285 0.063,-1.407 0.1,-2.816 0.171,-4.226 0.264,-5.219 0.273,-10.435 -0.046,-15.655 -0.163,-2.654 -0.099,-5.323 -0.089,-7.984 0.008,-1.932 0.1,-3.862 0.143,-5.793 0.047,-2.094 -0.071,-4.172 -0.432,-6.24 -0.202,-1.164 -0.874,-1.857 -1.906,-2.279 -0.385,-0.158 -0.794,-0.256 -1.182,-0.411 -0.659,-0.267 -1.126,-0.734 -1.393,-1.403 -0.51,-1.292 0.023,-2.636 1.333,-3.062 m -35.111,16.545 c 0.194,-0.758 0.389,-1.516 0.553,-2.28 0.347,-1.621 1.11,-3.022 2.173,-4.281 0.469,-0.558 0.882,-1.162 1.353,-1.718 0.333,-0.396 0.674,-0.81 1.091,-1.104 1.578,-1.111 3.188,-2.178 4.788,-3.255 0.172,-0.116 0.358,-0.222 0.554,-0.289 2.856,-0.987 5.655,-2.166 8.65,-2.701 1.902,-0.34 3.727,-0.109 5.471,0.792 0.826,0.427 1.282,1.029 1.401,1.924 0.028,0.207 0.068,0.412 0.086,0.62 0.122,1.403 0.242,2.807 0.357,4.21 0.029,0.364 0.063,0.73 0.052,1.095 -0.036,1.259 -1.107,1.944 -2.294,1.484 -0.555,-0.215 -0.986,-0.59 -1.318,-1.068 -0.417,-0.6 -0.809,-1.217 -1.201,-1.832 -0.195,-0.309 -0.353,-0.642 -0.556,-0.944 -0.68,-1.011 -1.623,-1.465 -2.83,-1.197 -3.837,0.854 -7.313,2.389 -10.149,5.224 -1.591,1.589 -2.33,3.454 -2.118,5.652 0.17,1.761 0.475,3.511 0.773,5.256 0.177,1.025 0.499,2.011 0.88,2.99 0.979,2.513 2.68,4.448 4.668,6.179 0.521,0.453 1.116,0.751 1.788,0.929 2.332,0.611 4.706,0.927 7.11,1.021 0.514,0.021 1.045,-0.053 1.55,-0.166 0.772,-0.173 1.152,-0.635 1.196,-1.437 0.039,-0.729 0.008,-1.459 0.008,-2.189 -0.047,0 -0.095,0 -0.142,10e-4 0,-0.679 0.035,-1.358 -0.007,-2.035 -0.086,-1.368 -0.401,-1.691 -1.785,-1.909 -0.36,-0.058 -0.729,-0.068 -1.089,-0.122 -0.916,-0.14 -1.559,-0.632 -1.741,-1.557 -0.142,-0.711 -0.245,-1.443 -0.24,-2.166 0.006,-0.933 0.469,-1.417 1.394,-1.615 0.304,-0.065 0.621,-0.07 0.934,-0.082 0.834,-0.032 1.675,10e-4 2.502,-0.094 1.24,-0.139 2.474,-0.342 3.703,-0.561 0.666,-0.118 1.314,-0.325 1.974,-0.489 1.332,-0.332 2.443,0.076 3.468,0.944 0.974,0.823 1.058,2.461 0.245,3.389 -0.307,0.353 -0.65,0.684 -1.022,0.964 -0.858,0.65 -1.234,1.541 -1.306,2.566 -0.047,0.674 -0.023,1.356 0.024,2.032 0.055,0.778 0.123,1.564 0.277,2.328 0.142,0.708 0.391,1.396 0.62,2.085 0.099,0.295 0.289,0.557 0.399,0.848 0.342,0.907 0.166,1.654 -0.625,2.211 -0.46,0.323 -1,0.604 -1.543,0.724 -3.262,0.72 -6.534,1.471 -9.911,1.036 -3.885,-0.5 -7.73,-1.146 -11.34,-2.821 -1.615,-0.749 -3.209,-1.506 -4.642,-2.567 -1.492,-1.106 -2.605,-2.553 -3.521,-4.138 -0.497,-0.86 -0.662,-1.846 -0.665,-2.865 -0.002,-0.934 -0.154,-1.864 -0.229,-2.796 -0.168,-2.086 -0.295,-4.169 0.232,-6.226 M 89.911,86.084 c -0.066,2.201 0.265,4.374 0.475,6.554 0.366,3.792 0.747,7.583 1.217,11.363 0.49,3.937 0.716,7.896 1.157,11.837 0.076,0.673 0.172,1.347 0.306,2.011 0.554,2.734 0.458,5.512 0.486,8.271 0.026,2.473 -0.608,4.857 -1.649,7.115 -0.392,0.854 -0.766,1.718 -1.196,2.552 -0.382,0.739 -0.789,1.473 -1.257,2.162 -0.995,1.468 -1.998,2.935 -3.07,4.348 -1.245,1.643 -2.774,2.994 -4.66,3.859 -2.532,1.161 -5.195,1.827 -7.979,2.119 -1.995,0.209 -3.955,0.133 -5.931,-0.102 -0.896,-0.106 -1.724,-0.367 -2.511,-0.813 -1.324,-0.747 -2.592,-1.563 -3.637,-2.687 -0.142,-0.153 -0.297,-0.297 -0.465,-0.421 -2.233,-1.656 -3.486,-3.965 -4.377,-6.526 -1.34,-3.857 -1.858,-7.837 -1.444,-11.88 0.382,-3.735 0.962,-7.454 2.442,-10.962 0.549,-1.298 0.985,-2.641 1.523,-3.943 0.298,-0.719 0.635,-1.439 1.071,-2.08 0.875,-1.285 2.121,-1.972 3.703,-1.997 1.221,-0.021 2.388,0.149 3.452,0.813 0.663,0.414 1.36,0.776 2.044,1.156 1.361,0.758 1.895,2.029 2.135,3.469 0.099,0.592 -0.106,1.152 -0.4,1.646 -0.4,0.671 -0.834,1.326 -1.314,1.94 -0.65,0.832 -1.184,1.721 -1.551,2.707 -0.8,2.151 -1.674,4.28 -2.353,6.469 -0.444,1.437 -0.632,2.955 -0.87,4.448 -0.189,1.184 -0.289,2.382 -0.41,3.576 -0.152,1.482 0.161,2.908 0.556,4.322 0.23,0.826 0.714,1.499 1.3,2.11 1.373,1.436 3.097,2.273 4.934,2.926 0.676,0.239 1.341,0.217 1.982,-0.077 1.279,-0.589 2.561,-1.178 3.816,-1.813 0.95,-0.481 1.698,-1.226 2.254,-2.128 0.877,-1.421 1.724,-2.862 2.558,-4.308 0.423,-0.733 0.615,-1.537 0.675,-2.39 0.104,-1.509 0.281,-3.013 0.39,-4.521 0.099,-1.352 0.166,-2.705 0.208,-4.06 0.033,-1.043 0.007,-2.088 0.007,-3.132 0.036,-10e-4 0.071,-0.003 0.106,-0.004 -0.108,-2.241 -0.206,-4.481 -0.326,-6.722 -0.09,-1.667 -0.192,-3.334 -0.319,-4.999 -0.285,-3.799 -0.751,-7.574 -1.433,-11.327 -0.438,-2.412 -0.84,-4.845 -1.007,-7.285 -0.134,-1.963 -2.058,-6.358 -2.175,-9.823 -0.162,-0.743 -0.522,-1.652 -1.262,-1.79 -0.308,-0.058 -0.611,-0.144 -0.922,-0.179 -2.35,-0.27 -4.579,-0.691 -6.802,-1.449 -1.778,-0.605 -5.175,-1.361 -7.043,-1.471 -3.448,-0.2 -6.388,-0.295 -8.443,-2.414 -1.054,-1.088 -0.524,-7.883 -0.426,-9.905 0.06,-1.212 0.522,-2.188 1.459,-2.876 1.13,-0.828 1.904,-0.827 2.997,0.067 1.846,1.513 3.842,2.753 5.924,3.822 4.589,2.358 9.328,3.708 14.222,5.057 0.862,0.237 1.729,0.348 2.623,0.395 1.039,0.053 2.092,0.133 3.104,0.354 0.933,0.203 1.855,0.258 2.796,0.252 2.309,-0.015 4.572,-0.413 6.839,-0.783 0.926,-0.15 1.847,-0.336 2.768,-0.52 0.996,-0.199 1.978,-0.105 2.943,0.146 1.095,0.286 1.64,1.06 1.768,2.146 0.215,1.844 -0.767,3.412 -2.519,4.019 -0.641,0.223 -1.295,0.404 -1.944,0.601 -0.762,0.229 -1.444,0.602 -2.041,1.126 -2.912,2.551 -4.39,5.771 -4.504,9.629 m 14.286,49.817 c -1.409,-3.117 -2.308,-6.364 -2.923,-9.71 -0.037,-0.205 -0.094,-0.41 -0.098,-0.617 -0.048,-2.516 -0.596,-4.969 -0.908,-7.449 -0.098,-0.775 -0.121,-1.562 -0.162,-2.342 -0.093,-1.771 -0.209,-3.541 -0.252,-5.313 -0.029,-1.239 -0.521,-2.088 -1.703,-2.529 -0.486,-0.182 -0.957,-0.417 -1.421,-0.653 -1.008,-0.519 -1.656,-1.718 -1.565,-2.846 0.036,-0.459 0.252,-0.822 0.681,-0.961 0.439,-0.141 0.91,-0.244 1.369,-0.252 2.409,-0.044 4.782,-0.32 7.14,-0.829 0.96,-0.207 1.97,-0.21 2.958,-0.242 0.933,-0.032 1.721,0.374 2.393,1.003 0.648,0.607 0.759,1.148 0.46,1.974 -0.347,0.951 -0.95,1.599 -1.976,1.809 -0.408,0.084 -0.808,0.211 -1.208,0.328 -0.937,0.271 -1.516,0.884 -1.723,1.838 -0.089,0.407 -0.18,0.815 -0.234,1.229 -0.42,3.196 -0.126,6.353 0.568,9.479 0.396,1.782 0.825,3.56 1.315,5.316 0.787,2.822 1.857,5.53 3.351,8.067 0.769,1.308 1.838,2.132 3.33,2.334 1.756,0.238 3.519,0.421 5.282,0.604 0.745,0.078 1.429,-0.131 2.104,-0.468 1.118,-0.557 2.255,-1.089 3.419,-1.538 1.033,-0.399 1.78,-1.042 2.278,-2.021 0.448,-0.882 0.956,-1.733 1.4,-2.616 0.504,-0.999 0.531,-2.003 -0.105,-2.972 -0.058,-0.087 -0.134,-0.165 -0.176,-0.258 -0.669,-1.479 -1.765,-2.522 -3.159,-3.34 -0.901,-0.528 -1.565,-1.31 -1.984,-2.342 -0.554,-1.37 0.621,-2.933 2.179,-2.772 0.454,0.047 0.91,0.222 1.335,0.409 1.438,0.637 2.911,1.127 4.479,1.346 0.772,0.108 1.52,0.378 2.289,0.516 0.923,0.164 1.858,0.253 2.786,0.393 0.618,0.093 1.248,0.158 1.843,0.337 1.309,0.395 2.081,1.359 2.479,2.617 0.311,0.982 -0.225,1.931 -1.232,2.181 -0.654,0.163 -1.339,0.22 -2.013,0.273 -0.658,0.053 -1.139,0.373 -1.664,0.754 -1.408,1.019 -2.093,2.365 -2.304,4.061 -0.122,0.978 -0.468,1.926 -0.687,2.891 -0.497,2.185 -1.646,3.912 -3.516,5.169 -1.78,1.198 -3.62,2.276 -5.604,3.103 -1.571,0.655 -3.196,0.931 -4.892,0.833 -0.572,-0.031 -1.148,-0.005 -1.723,-0.005 v -0.012 c -0.417,0 -0.839,-0.038 -1.251,0.007 -2.101,0.227 -4.027,-0.397 -5.908,-1.207 -0.521,-0.224 -1.02,-0.546 -1.45,-0.914 -1.521,-1.302 -2.752,-2.793 -3.597,-4.663 m 9.693,142.659 c -0.216,0.508 -0.43,1.02 -0.625,1.535 -2.165,5.752 -6.75,9.352 -12.09,12.282 -3.314,1.301 -6.632,2.588 -10.264,3.033 -0.578,0.069 -1.153,0.181 -1.715,0.319 -3.898,0.981 -7.905,1.361 -11.963,1.471 -1.313,0.033 -2.582,-0.148 -3.736,-0.874 -0.577,-0.361 -3.245,-3.966 -3.507,-5.236 -0.742,-3.614 -1.451,-7.234 -2.134,-10.857 -0.318,-1.688 0.547,-3.227 2.016,-3.756 1.366,-0.495 3.258,0.191 4.123,1.546 0.31,0.486 0.542,1.034 0.734,1.578 0.561,1.577 1.546,4.574 2.946,5.454 0.061,0.039 0.127,0.073 0.181,0.121 2.688,2.35 5.177,3.671 7.857,3.427 1.273,-0.115 2.563,-0.312 3.77,-0.672 2.876,-0.857 5.726,-1.795 8.174,-3.507 1.263,-0.883 2.426,-2.686 3.161,-4.036 0.211,-0.387 0.461,-0.762 0.743,-1.104 1.441,-1.757 1.526,-3.731 0.816,-5.834 -0.367,-1.085 -0.892,-2.113 -1.769,-2.929 -2.705,-2.508 -5.424,-4.985 -8.856,-6.628 -2.025,-0.969 -3.956,-2.124 -5.929,-3.194 -0.053,-0.028 -0.11,-0.053 -0.153,-0.091 -1.478,-1.313 -3.224,-2.308 -4.65,-3.699 -1.207,-1.18 -2.563,-2.234 -3.938,-3.237 -1.119,-0.816 -1.982,-1.771 -2.75,-2.884 -2.504,-3.627 -2.501,-5.071 -3.505,-8.778 -0.337,-1.247 -0.3,-2.511 -0.299,-3.776 0,-3.504 0.826,-6.762 2.45,-9.797 1.291,-3.354 4.53,-5.716 7.509,-7.702 2.478,-1.18 6.358,-2.348 9.505,-2.753 0.5,-0.063 0.998,-0.164 1.483,-0.292 3.376,-0.889 6.846,-1.231 10.359,-1.332 1.138,-0.03 2.235,0.137 3.235,0.793 0.499,0.328 0.821,0.716 0.935,1.335 0.163,0.898 0.499,1.771 0.687,2.664 0.536,2.54 1.049,5.085 1.54,7.635 0.23,1.188 -0.395,2.269 -1.454,2.641 -0.985,0.347 -2.351,-0.134 -2.975,-1.087 -0.224,-0.342 -0.391,-0.729 -0.53,-1.109 -0.403,-1.107 -1.115,-2.525 -2.127,-3.146 -0.044,-0.027 -0.091,-0.053 -0.13,-0.085 -1.938,-1.652 -4.202,-1.854 -6.523,-1.632 -1.104,0.104 -2.22,0.281 -3.266,0.609 -2.49,0.779 -7.638,1.344 -9.357,2.898 -0.888,0.802 -1.737,1.979 -2.279,3.021 -0.155,0.299 -0.338,0.58 -0.544,0.827 0,0 -1.443,1.847 -0.262,7.68 0.528,1.293 3.939,4.53 4.962,5.224 2.244,1.52 5.039,3.08 7.398,4.416 2.203,1.246 4.543,2.276 6.869,3.305 2.876,1.271 5.738,2.558 8.332,4.325 4.492,3.058 7.479,7.101 8.389,12.219 0.582,3.271 0.469,6.569 -0.844,9.669 m 20.482,8.296 c -0.373,0.17 -0.787,0.313 -1.191,0.339 -2.301,0.164 -4.451,0.986 -6.666,1.522 -1.764,0.427 -3.531,0.842 -5.297,1.255 -0.251,0.06 -0.512,0.113 -0.767,0.108 -0.97,-0.019 -1.683,-0.642 -1.791,-1.623 -0.063,-0.571 -0.042,-1.157 -0.003,-1.733 0.032,-0.488 0.261,-0.897 0.66,-1.204 0.745,-0.565 1.43,-1.225 2.345,-1.525 0.194,-0.064 0.377,-0.175 0.559,-0.273 0.44,-0.242 0.721,-0.618 0.777,-1.117 0.058,-0.52 0.104,-1.051 0.066,-1.569 -0.257,-3.569 -0.531,-7.139 -0.813,-10.705 -0.079,-0.996 -0.188,-1.99 -0.308,-2.983 -0.198,-1.671 -0.452,-3.335 -0.426,-5.029 0.01,-0.627 -0.102,-1.256 -0.164,-1.884 -0.141,-1.414 -0.34,-2.825 -0.418,-4.242 -0.187,-3.367 -0.568,-6.71 -1.181,-10.023 -0.171,-0.933 -0.291,-1.872 -0.468,-2.803 -0.186,-0.972 -0.491,-1.233 -1.478,-1.257 -0.933,-0.019 -1.867,0.007 -2.801,0.014 10e-4,0.045 10e-4,0.09 10e-4,0.135 -0.933,0.006 -1.866,0.008 -2.799,0.018 -1.18,0.016 -1.95,0.613 -2.346,1.726 -0.177,0.494 -0.326,0.998 -0.503,1.49 -0.399,1.122 -0.914,1.522 -1.916,1.505 -1.096,-0.021 -1.869,-0.621 -2.167,-1.688 -0.027,-0.101 -0.043,-0.206 -0.058,-0.311 -0.232,-1.667 -0.49,-3.331 -0.683,-5.003 -0.066,-0.566 -0.037,-1.164 0.063,-1.727 0.159,-0.894 0.768,-1.424 1.653,-1.338 2.873,0.278 5.689,-0.227 8.516,-0.572 1.177,-0.142 2.33,-0.489 3.487,-0.772 0.755,-0.186 1.487,-0.483 2.249,-0.617 2.277,-0.4 4.328,-1.431 6.446,-2.281 1.976,-0.793 3.969,-1.541 5.953,-2.313 0.822,-0.32 1.638,-0.662 2.461,-0.981 0.92,-0.356 1.84,-0.715 2.77,-1.04 0.439,-0.154 0.899,-0.267 1.358,-0.34 2.25,-0.361 3.111,0.079 4.102,2.165 0.854,1.799 1.856,3.537 2.324,5.502 0.121,0.506 0.206,1.029 0.229,1.549 0.033,0.753 -0.358,1.3 -0.978,1.678 -0.63,0.389 -1.291,0.336 -1.865,-0.156 -0.355,-0.307 -0.672,-0.658 -1.015,-0.98 -0.418,-0.394 -0.842,-0.781 -1.271,-1.164 -0.733,-0.659 -1.521,-0.757 -2.448,-0.382 -1.685,0.68 -3.396,1.297 -5.104,1.913 -1.319,0.475 -2.652,0.909 -3.979,1.36 -0.296,0.101 -0.595,0.188 -0.888,0.293 -2.015,0.714 -2.204,0.995 -2.229,3.207 -0.047,3.906 0.29,7.771 1.115,11.601 0.319,1.483 0.425,3.018 0.572,4.536 0.233,2.408 0.474,4.816 0.615,7.23 0.164,2.785 0.177,5.579 0.346,8.362 0.121,1.993 0.355,3.981 0.609,5.963 0.134,1.043 0.58,1.389 1.667,1.545 0.462,0.066 0.933,0.069 1.392,0.151 1.291,0.23 2.432,1.486 2.582,2.81 0.093,0.762 -0.188,1.334 -0.896,1.658 m 29.861,-37.144 c -0.251,0.06 -0.516,0.058 -0.771,0.105 -1.443,0.277 -1.863,0.714 -1.944,2.201 -0.179,3.315 -0.258,6.631 -0.058,9.95 0.19,3.17 -0.052,6.32 -0.579,9.441 -0.354,2.102 -1.287,3.995 -2.347,5.816 -0.396,0.683 -0.84,1.333 -1.241,2.011 -0.821,1.381 -1.996,2.419 -3.224,3.395 -0.84,0.668 -1.852,0.912 -2.906,0.998 -0.929,0.076 -1.858,0.146 -2.778,0.282 -0.754,0.109 -1.441,-0.047 -2.125,-0.323 -0.722,-0.291 -1.443,-0.585 -2.17,-0.862 -1.634,-0.624 -3.026,-1.629 -4.245,-2.868 -1.15,-1.167 -1.729,-2.634 -1.747,-4.271 -0.011,-1.077 -0.249,-2.071 -0.579,-3.078 -0.276,-0.845 -0.513,-1.727 -0.601,-2.609 -0.452,-4.503 -1.167,-8.984 -1.092,-13.53 0.015,-0.951 -0.192,-1.761 -1.057,-2.31 -0.232,-0.146 -0.461,-0.479 -0.491,-0.752 -0.106,-0.992 -0.196,-1.995 -0.163,-2.989 0.033,-1.009 0.333,-1.285 1.281,-1.485 1.117,-0.235 2.23,-0.518 3.36,-0.652 1.334,-0.162 2.683,-0.199 4.027,-0.275 0.541,-0.03 1.026,0.169 1.443,0.5 0.721,0.573 1.187,1.33 1.366,2.236 0.201,1.018 -0.203,1.737 -1.161,2.133 -0.333,0.141 -0.695,0.206 -1.044,0.305 -0.5,0.139 -1.011,0.245 -1.499,0.417 -0.864,0.305 -1.355,0.942 -1.473,1.861 -0.047,0.365 -0.079,0.737 -0.063,1.104 0.079,1.841 0.123,3.685 0.281,5.518 0.194,2.255 0.482,4.501 0.741,6.75 0.133,1.154 0.313,2.298 0.792,3.368 0.801,1.792 2.042,3.151 3.813,3.996 0.734,0.349 1.47,0.499 2.25,0.164 0.734,-0.315 1.512,-0.359 2.294,-0.324 1.224,0.052 2.215,-0.455 3.07,-1.292 0.946,-0.926 1.682,-1.979 2.128,-3.259 0.505,-1.452 0.849,-2.941 0.966,-4.463 0.185,-2.361 0.266,-4.731 0.391,-7.096 l -0.106,-0.008 c -0.062,-2.052 -0.123,-4.104 -0.186,-6.157 -0.01,-0.264 -0.04,-0.525 -0.044,-0.789 -0.015,-0.855 -0.457,-1.345 -1.238,-1.61 -0.487,-0.168 -0.965,-0.394 -1.404,-0.665 -0.705,-0.436 -1.096,-1.106 -1.182,-1.945 -0.12,-1.169 0.524,-2.188 1.624,-2.573 0.146,-0.053 0.297,-0.103 0.45,-0.128 2.353,-0.396 4.706,-0.788 7.059,-1.181 0.257,-0.042 0.514,-0.079 0.772,-0.104 2.285,-0.235 3.147,1.022 3.56,2.896 0.164,0.747 -0.262,1.5 -0.958,1.81 -0.375,0.161 -0.788,0.246 -1.192,0.341 m 35.92,-23.556 c 0.025,1.524 -0.001,3.051 -0.019,4.573 -0.01,0.79 -0.072,1.58 -0.071,2.369 0.005,4.214 0.086,8.431 0.021,12.646 -0.056,3.367 -0.28,6.733 -0.434,10.104 -0.121,2.685 -0.261,5.366 -0.36,8.05 -0.055,1.477 -0.018,2.947 0.225,4.413 0.118,0.724 0.087,1.472 0.115,2.208 0.018,0.475 -0.007,0.95 0.033,1.42 0.099,1.146 0.479,1.56 1.603,1.794 0.507,0.107 1.021,0.193 1.524,0.316 1.804,0.438 2.438,2.627 2.092,3.899 -0.245,0.9 -0.871,1.433 -1.767,1.571 -0.561,0.087 -1.139,0.098 -1.708,0.08 -4.057,-0.118 -8.094,0.188 -12.125,0.583 -0.207,0.021 -0.413,0.044 -0.62,0.052 -1.49,0.063 -2.32,-0.854 -2.148,-2.361 0.13,-1.143 1.289,-2.533 2.412,-2.85 0.498,-0.138 1.018,-0.193 1.526,-0.299 1.195,-0.246 1.527,-0.538 1.644,-1.74 0.126,-1.309 0.165,-2.628 0.2,-3.941 0.056,-2.053 0.077,-4.107 0.107,-6.16 0.007,-0.422 0.008,-0.845 -0.022,-1.264 -0.305,-4.055 -0.193,-8.112 -0.155,-12.167 0.035,-3.688 0.259,-7.373 0.269,-11.061 0.011,-3.951 -0.123,-7.9 -0.222,-11.851 -0.019,-0.733 -0.136,-1.473 -0.269,-2.194 -0.179,-0.971 -0.627,-1.346 -1.613,-1.349 -0.621,-0.001 -1.245,0.061 -1.862,0.142 -2.262,0.295 -4.521,0.605 -6.783,0.921 -0.668,0.094 -1.339,0.186 -1.994,0.342 -0.942,0.229 -1.314,0.646 -1.388,1.647 -0.069,0.996 -0.077,2.001 -0.049,3 0.087,3.001 0.206,6.001 0.312,9.002 -0.034,0.001 -0.07,0.002 -0.105,0.003 -0.085,3.843 -0.138,7.689 -0.267,11.532 -0.083,2.473 -0.287,4.938 -0.416,7.411 -0.036,0.683 -0.034,1.372 0.013,2.053 0.109,1.586 -0.016,3.155 -0.181,4.73 -0.11,1.045 -0.116,2.102 -0.153,3.152 -0.009,0.262 0.016,0.529 0.069,0.785 0.15,0.735 0.517,1.089 1.263,1.185 0.462,0.061 0.933,0.04 1.397,0.077 1.958,0.158 3.251,1.887 2.891,3.86 -0.17,0.925 -0.74,1.509 -1.614,1.731 -0.497,0.126 -1.028,0.151 -1.545,0.149 -2.549,-0.009 -5.079,0.21 -7.604,0.546 -0.883,0.117 -1.735,0.298 -2.564,0.614 -0.292,0.11 -0.577,0.243 -0.876,0.331 -1.177,0.346 -1.872,0.109 -2.557,-0.904 -0.262,-0.389 -0.499,-0.811 -0.651,-1.252 -0.114,-0.331 -0.172,-0.746 -0.084,-1.075 0.342,-1.276 0.956,-2.331 2.396,-2.602 0.713,-0.135 1.408,-0.361 2.122,-0.5 0.969,-0.19 1.395,-0.827 1.505,-1.756 0.02,-0.157 0.03,-0.315 0.036,-0.475 0.081,-2.577 0.2,-5.155 0.23,-7.734 0.042,-3.582 -0.01,-7.166 0.031,-10.748 0.027,-2.477 0.157,-4.948 0.224,-7.422 0.095,-3.543 -0.305,-7.047 -0.827,-10.541 -0.164,-1.094 -0.292,-2.191 -0.465,-3.282 -0.083,-0.519 -0.203,-1.034 -0.354,-1.537 -0.293,-0.979 -0.668,-1.248 -1.701,-1.271 -0.259,-0.008 -0.52,0.013 -0.777,0.028 -1.347,0.095 -2.692,0.212 -4.04,0.277 -0.9,0.044 -1.595,0.406 -2.093,1.163 -1.065,1.619 -2.225,3.183 -2.824,5.071 -0.212,0.667 -0.615,1.215 -1.151,1.656 -0.752,0.623 -1.546,0.619 -2.231,-0.07 -1.01,-1.019 -1.576,-2.253 -1.342,-3.711 0.3,-1.868 0.562,-3.749 1.146,-5.562 0.241,-0.749 0.429,-1.517 0.614,-2.283 0.231,-0.944 0.396,-1.127 1.363,-1.175 2.071,-0.102 4.145,-0.237 6.217,-0.244 2.345,-0.009 4.659,-0.299 6.98,-0.546 1.701,-0.181 3.408,-0.334 5.11,-0.516 1.649,-0.177 3.3,-0.372 4.949,-0.563 1.134,-0.129 2.266,-0.284 3.401,-0.39 2.59,-0.242 5.111,-0.885 7.665,-1.34 1.786,-0.318 3.593,-0.531 5.38,-0.854 2.859,-0.513 5.711,-1.074 8.565,-1.623 0.968,-0.186 1.932,-0.394 2.899,-0.587 1.639,-0.327 3.202,-0.876 4.711,-1.6 0.233,-0.113 0.471,-0.227 0.715,-0.313 1.096,-0.396 1.847,-0.063 2.14,1.085 0.246,0.965 0.325,1.972 0.484,2.956 0.269,1.663 0.553,3.322 0.808,4.985 0.104,0.674 0.204,1.355 0.199,2.034 -0.003,0.398 -0.148,0.837 -0.347,1.188 -0.508,0.902 -1.541,1.146 -2.428,0.618 -0.222,-0.132 -0.439,-0.29 -0.61,-0.482 -0.567,-0.636 -1.236,-1.112 -1.998,-1.479 -0.667,-0.322 -1.208,-0.813 -1.655,-1.409 -0.188,-0.251 -0.396,-0.492 -0.567,-0.753 -0.523,-0.797 -1.265,-1.044 -2.163,-0.9 -0.613,0.1 -1.229,0.193 -1.841,0.313 -1.427,0.279 -2.851,0.571 -4.273,0.863 -0.254,0.052 -0.509,0.108 -0.754,0.19 -0.726,0.243 -1.126,0.746 -1.098,1.534 0.038,1.169 0.143,2.327 0.159,3.484 m 35.183,37.636 c -1.438,0.908 -1.914,2.2 -1.921,3.855 -0.005,1.364 -0.211,2.71 0.072,4.084 0.272,1.316 -0.225,2.076 -1.504,2.563 -0.628,0.239 -1.288,0.415 -1.946,0.54 -1.682,0.32 -3.373,0.579 -5.056,0.893 -2.521,0.471 -4.966,0.046 -7.368,-0.678 -1.188,-0.359 -2.335,-0.876 -3.469,-1.39 -0.512,-0.231 -0.985,-0.589 -1.414,-0.961 -0.826,-0.721 -1.603,-1.494 -2.409,-2.237 -0.267,-0.247 -0.531,-0.518 -0.844,-0.691 -0.873,-0.489 -1.346,-1.271 -1.703,-2.176 -0.487,-1.237 -0.715,-2.527 -0.84,-3.84 -0.061,-0.628 -0.068,-1.262 -0.1,-1.895 -0.066,-1.755 0.113,-3.479 0.746,-5.119 0.318,-0.828 0.685,-1.67 1.188,-2.389 3.067,-4.365 7.045,-7.581 12.073,-9.292 2.005,-0.681 4.121,-1.05 6.205,-1.46 1.278,-0.253 2.248,0.242 3.011,1.432 0.802,1.248 1.47,2.521 1.907,3.941 0.381,1.233 0.475,2.473 0.266,3.741 -0.032,0.206 -0.064,0.418 -0.14,0.612 -0.317,0.838 -1.203,1.089 -1.9,0.507 -0.313,-0.264 -0.599,-0.596 -0.803,-0.951 -0.312,-0.543 -0.548,-1.131 -0.803,-1.705 -0.213,-0.479 -0.384,-0.979 -0.613,-1.45 -0.313,-0.638 -0.861,-0.941 -1.542,-0.788 -1.915,0.438 -3.886,0.686 -5.595,1.815 -0.822,0.545 -1.723,0.973 -2.596,1.435 -1.537,0.814 -2.673,1.956 -3.159,3.705 -0.168,0.604 -0.505,1.152 -0.734,1.738 -0.269,0.681 -0.526,1.369 -0.748,2.067 -0.691,2.167 -0.324,4.263 0.46,6.321 0.404,1.064 1.048,1.915 2.026,2.52 1.116,0.687 2.27,1.163 3.582,1.425 2.791,0.556 5.474,0.141 8.148,-0.562 1.236,-0.324 1.753,-2.076 0.932,-3.064 -0.187,-0.226 -0.494,-0.38 -0.776,-0.478 -0.339,-0.115 -0.717,-0.107 -1.067,-0.201 -1.622,-0.438 -2.229,-1.686 -2.174,-3.209 0.017,-0.414 0.129,-0.835 0.258,-1.232 0.25,-0.771 0.776,-1.229 1.601,-1.277 0.414,-0.022 0.831,-0.06 1.243,-0.04 1.412,0.069 2.791,-0.144 4.166,-0.438 0.607,-0.131 1.225,-0.243 1.843,-0.302 1.499,-0.144 2.339,0.607 2.494,2.138 0.105,1.025 -0.12,1.938 -0.997,2.493 m -91.709,46.803 -1.335,-0.448 0.175,-1.063 9.14,1.504 -0.251,2.917 -1.2,-0.197 -0.287,-1.791 -3.678,-0.764 -0.759,4.613 2.392,0.341 0.505,-1.361 1.098,0.181 -0.683,4.149 -1.097,-0.181 -0.032,-1.52 -2.375,-0.443 -0.795,4.836 4.184,0.477 1.355,-2.031 1.227,0.571 -0.962,3.065 -9.86,-1.623 0.169,-1.028 1.383,0.052 z m 10.169,11.778 c 0.079,0.147 0.273,0.301 0.584,0.459 0.323,0.147 0.651,0.238 0.986,0.271 0.542,0.054 0.957,-0.017 1.243,-0.21 0.299,-0.203 0.467,-0.49 0.503,-0.858 0.037,-0.381 -0.1,-0.703 -0.412,-0.966 -0.311,-0.275 -0.847,-0.624 -1.608,-1.048 l -0.464,-0.255 c -0.763,-0.412 -1.317,-0.874 -1.663,-1.385 -0.346,-0.512 -0.482,-1.142 -0.409,-1.892 0.051,-0.519 0.251,-0.965 0.602,-1.338 0.352,-0.385 0.822,-0.664 1.409,-0.84 0.587,-0.175 1.25,-0.227 1.988,-0.154 0.542,0.053 1,0.132 1.374,0.239 0.385,0.107 0.786,0.239 1.201,0.396 0.223,0.104 0.391,0.166 0.505,0.189 l -0.222,2.266 -1.366,-0.134 -0.269,-1.354 c -0.058,-0.122 -0.204,-0.241 -0.437,-0.357 -0.233,-0.115 -0.505,-0.188 -0.817,-0.22 -0.473,-0.046 -0.863,0.021 -1.172,0.2 -0.296,0.169 -0.461,0.433 -0.496,0.79 -0.032,0.322 0.04,0.603 0.214,0.841 0.176,0.228 0.374,0.409 0.593,0.547 0.219,0.138 0.627,0.37 1.224,0.696 0.597,0.326 1.085,0.63 1.465,0.911 0.391,0.283 0.7,0.634 0.927,1.052 0.24,0.407 0.332,0.888 0.278,1.441 -0.083,0.854 -0.485,1.512 -1.206,1.978 -0.721,0.465 -1.709,0.636 -2.966,0.513 -0.588,-0.058 -1.114,-0.161 -1.576,-0.312 -0.451,-0.148 -0.974,-0.34 -1.568,-0.572 l -0.369,-0.158 0.223,-2.283 1.436,0.141 z m 9.834,2.331 c -0.729,-0.032 -1.26,-0.225 -1.592,-0.576 -0.332,-0.351 -0.481,-0.892 -0.448,-1.621 l 0.289,-6.371 -1.129,-0.051 0.041,-0.903 c 0.094,-0.03 0.265,-0.08 0.511,-0.15 0.248,-0.082 0.436,-0.148 0.566,-0.2 0.204,-0.142 0.383,-0.395 0.539,-0.759 0.115,-0.238 0.333,-0.831 0.654,-1.779 l 1.389,0.063 -0.046,2.556 2.656,0.12 -0.06,1.335 -2.639,-0.12 -0.222,4.879 c -0.029,0.647 -0.032,1.105 -0.01,1.373 0.022,0.269 0.09,0.445 0.202,0.531 0.112,0.075 0.313,0.119 0.603,0.132 0.29,0.014 0.592,-0.002 0.907,-0.046 0.316,-0.055 0.58,-0.124 0.792,-0.207 l 0.286,0.986 c -0.335,0.229 -0.82,0.427 -1.454,0.596 -0.633,0.168 -1.245,0.24 -1.835,0.212 z m 5.808,0.149 c -0.359,-0.002 -0.671,-0.126 -0.936,-0.37 -0.265,-0.257 -0.396,-0.576 -0.395,-0.959 0.003,-0.428 0.155,-0.775 0.458,-1.04 0.314,-0.276 0.691,-0.413 1.132,-0.41 0.417,0.003 0.746,0.138 0.988,0.405 0.242,0.256 0.361,0.563 0.359,0.923 -0.002,0.452 -0.156,0.811 -0.459,1.075 -0.289,0.253 -0.672,0.378 -1.147,0.376 z m 9.342,-8.906 c -0.193,0.081 -0.539,0.196 -1.041,0.345 -0.502,0.137 -0.896,0.231 -1.184,0.284 l -0.268,-1.201 c 0.615,-0.167 1.25,-0.435 1.898,-0.801 0.662,-0.379 1.193,-0.761 1.6,-1.147 h 0.018 l 1.381,0.103 0.609,9.539 1.99,0.063 0.064,1.023 -6.607,0.423 -0.064,-1.023 2.07,-0.307 z m 9.703,-3.363 c 0.998,-0.128 1.873,-0.007 2.621,0.365 0.758,0.357 1.361,0.911 1.807,1.66 0.445,0.737 0.734,1.617 0.865,2.64 0.195,1.528 0.033,2.963 -0.484,4.302 -0.506,1.327 -1.252,2.438 -2.234,3.335 -0.982,0.908 -2.043,1.512 -3.186,1.81 l -0.619,-0.866 c 1.182,-0.537 2.1,-1.303 2.754,-2.298 0.656,-0.995 1.055,-2.127 1.195,-3.395 -0.25,0.324 -0.582,0.612 -0.994,0.863 -0.412,0.24 -0.889,0.395 -1.43,0.464 -0.758,0.097 -1.451,0.011 -2.082,-0.259 -0.631,-0.271 -1.152,-0.693 -1.564,-1.271 -0.402,-0.58 -0.654,-1.283 -0.762,-2.11 -0.107,-0.839 -0.021,-1.632 0.256,-2.38 0.289,-0.762 0.762,-1.395 1.422,-1.899 0.657,-0.517 1.468,-0.838 2.435,-0.961 z m 0.834,7.479 c 0.461,-0.059 0.867,-0.216 1.219,-0.471 0.354,-0.256 0.6,-0.521 0.74,-0.796 -0.008,-0.244 -0.031,-0.609 -0.07,-1.095 -0.178,-1.379 -0.48,-2.421 -0.908,-3.125 -0.42,-0.717 -1.025,-1.025 -1.818,-0.924 -0.645,0.083 -1.104,0.451 -1.383,1.106 -0.277,0.654 -0.361,1.418 -0.25,2.292 0.143,1.114 0.434,1.918 0.869,2.411 0.435,0.483 0.97,0.683 1.601,0.602 z m 9.265,4.523 c 0.672,-2.594 1.439,-6.181 2.301,-10.763 l 0.344,-1.734 -4.502,0.977 -0.365,2.679 -1.484,0.016 -0.336,-3.867 8.127,-1.636 0.555,0.473 -1.139,8.26 -0.807,5.764 z m 13.694,-5.711 -5.527,1.528 -0.775,-0.723 c 0.457,-2.086 1.07,-6.036 1.844,-11.851 l 0.502,-0.14 2.162,0.448 -2.021,9.321 -0.436,1.293 3.871,-1.323 -0.699,-3.179 1.785,-0.655 0.871,3.149 2.111,-0.71 0.467,1.691 -2.143,0.593 0.74,2.68 -2.01,0.556 z"
   id="path356"
   style="stroke-width:20.1583" />
</g></svg>
